####
#
# OBJ File Generated by Meshlab
#
####
# Object head.obj
#
# Vertices: 77
# Faces: 150
#
####
vn 0.992408 -0.023058 0.120808
v 0.095181 0.002963 0.189442
vn -0.969027 -0.091206 0.229496
v -0.093824 -0.009252 0.200923
vn -0.220066 0.752195 -0.621106
v -0.020086 0.070262 0.111949
vn 0.205734 -0.660287 -0.722284
v 0.024314 -0.064892 0.107201
vn 0.907605 0.234958 0.347919
v 0.088594 0.020976 0.206724
vn 0.679485 0.194536 0.707429
v 0.066501 0.017111 0.242927
vn -0.693320 -0.197816 0.692947
v -0.065597 -0.018946 0.243156
vn 0.021164 -0.954380 0.297843
v 0.004245 -0.091959 0.204001
vn -0.011916 0.957958 0.286661
v -0.004245 0.091959 0.204001
vn 0.108151 0.720219 -0.685265
v 0.013711 0.070147 0.108621
vn 0.675353 0.713977 -0.184758
v 0.062888 0.072338 0.161427
vn 0.753061 0.525177 0.396343
v 0.072251 0.049184 0.215172
vn -0.807138 0.588040 -0.052316
v -0.079585 0.054777 0.174823
vn -0.670595 -0.720992 -0.174566
v -0.062888 -0.072338 0.161427
vn -0.761805 -0.514959 0.393027
v -0.072251 -0.049184 0.215172
vn -0.956984 0.265777 -0.116375
v -0.091755 0.025964 0.160990
vn -0.014018 -0.711771 0.702272
v -0.001164 -0.070276 0.241001
vn -0.210580 -0.971834 0.105807
v -0.017309 -0.094680 0.176218
vn -0.370216 -0.791955 0.485538
v -0.033802 -0.075772 0.223883
vn -0.008752 0.691219 0.722592
v 0.001226 0.069889 0.241493
vn 0.285789 0.954421 -0.086051
v 0.023188 0.094270 0.165220
vn 0.372532 0.795166 0.478468
v 0.033802 0.075772 0.223883
vn -0.498535 -0.733898 -0.461364
v -0.052799 -0.068347 0.131051
vn -0.312043 -0.930593 -0.191378
v -0.027305 -0.091729 0.159899
vn 0.506143 -0.862373 0.011506
v 0.047494 -0.083536 0.173278
vn -0.129932 -0.785128 -0.605551
v -0.010185 -0.075013 0.114409
vn 0.156490 -0.971326 -0.178986
v 0.015638 -0.093688 0.155104
vn -0.553457 0.832873 0.002875
v -0.050419 0.082375 0.179996
vn -0.162772 0.968021 -0.190892
v -0.016071 0.093300 0.152844
vn 0.523242 0.708072 -0.474186
v 0.052799 0.068347 0.131051
vn 0.786172 -0.617998 -0.003470
v 0.079585 -0.054777 0.174823
vn 0.545320 -0.770438 -0.330228
v 0.048585 -0.078165 0.143845
vn 0.893816 -0.394186 -0.213798
v 0.088348 -0.036537 0.155104
vn 0.040123 -0.171809 -0.984313
v 0.005347 -0.014218 0.079558
vn 0.366420 -0.329637 -0.870101
v 0.032996 -0.030128 0.089172
vn 0.712108 -0.199055 -0.673260
v 0.066817 -0.022831 0.107693
vn 0.578239 -0.559971 -0.593356
v 0.051767 -0.057522 0.118183
vn 0.778364 0.321670 -0.539146
v 0.077061 0.030704 0.124304
vn 0.419141 0.412173 -0.808971
v 0.043129 0.035963 0.094628
vn 0.435020 0.068755 -0.897792
v 0.043478 0.012171 0.089546
vn 0.634945 0.751620 0.178641
v 0.062142 0.072509 0.192479
vn 0.646263 -0.700472 0.302791
v 0.064539 -0.067466 0.198798
vn 0.838911 -0.396748 0.372585
v 0.080430 -0.039155 0.212467
vn 0.408393 -0.523761 0.747590
v 0.037990 -0.048074 0.251683
vn 0.339306 -0.871404 0.354297
v 0.034135 -0.082933 0.211177
vn 0.060521 0.257050 0.964501
v 0.006229 0.022973 0.268609
vn 0.850338 -0.083949 0.519498
v 0.080073 -0.010923 0.228142
vn 0.569350 0.536829 0.622620
v 0.054963 0.052865 0.233735
vn 0.625499 -0.209335 0.751618
v 0.058205 -0.021573 0.248567
vn 0.358087 0.434139 0.826618
v 0.036493 0.040106 0.254481
vn 0.331622 -0.028301 0.942988
v 0.027632 -0.004992 0.267874
vn 0.909874 0.413079 -0.038665
v 0.087467 0.040312 0.165117
vn 0.946608 0.018515 -0.321856
v 0.090671 -0.000214 0.140135
vn -0.404981 0.847382 -0.343417
v -0.036034 0.082796 0.142599
vn -0.151731 -0.429657 -0.890153
v -0.019326 -0.036850 0.087911
vn -0.435165 -0.516857 -0.737218
v -0.036543 -0.054810 0.104900
vn -0.740455 -0.407315 -0.534622
v -0.071879 -0.042679 0.126577
vn -0.010378 0.258606 -0.965927
v -0.005980 0.023475 0.081933
vn -0.367078 0.415656 -0.832156
v -0.032462 0.040386 0.094027
vn -0.767293 0.389056 -0.509801
v -0.072026 0.038616 0.123349
vn -0.573216 0.674122 -0.465813
v -0.052965 0.063139 0.123476
vn -0.707636 0.059040 -0.704106
v -0.069148 0.004284 0.107385
vn -0.433200 -0.091209 -0.896671
v -0.044649 -0.003873 0.088770
vn -0.915352 0.325653 0.236814
v -0.086883 0.033794 0.197913
vn -0.600960 -0.781856 0.165978
v -0.062142 -0.072509 0.192479
vn -0.083343 -0.224691 0.970859
v -0.011938 -0.023864 0.268260
vn -0.567218 -0.541447 0.620563
v -0.055009 -0.053267 0.233249
vn -0.243895 0.279704 0.928591
v -0.023547 0.026255 0.265290
vn -0.825358 0.157903 0.542080
v -0.080073 0.010923 0.228142
vn -0.343436 0.866839 0.361444
v -0.034135 0.082933 0.211177
vn -0.410632 0.588605 0.696366
v -0.039667 0.057822 0.241623
vn -0.707779 0.562957 0.426765
v -0.068661 0.053058 0.216800
vn -0.371305 -0.441859 0.816636
v -0.036634 -0.038169 0.255607
vn -0.603613 0.235470 0.761712
v -0.058665 0.022515 0.247704
vn -0.426939 -0.048724 0.902967
v -0.038843 -0.003989 0.262547
vn -0.942032 -0.024961 -0.334593
v -0.090671 0.000214 0.140135
vn -0.898614 -0.435250 -0.055239
v -0.087467 -0.040312 0.165117
# 77 vertices, 0 vertices normals

f 72//72 70//70 28//28
f 64//64 69//69 72//72
f 69//69 74//74 72//72
f 71//71 68//68 20//20
f 74//74 71//71 72//72
f 72//72 71//71 70//70
f 29//29 9//9 21//21
f 70//70 9//9 29//29
f 70//70 29//29 28//28
f 70//70 71//71 20//20
f 21//21 41//41 11//11
f 9//9 22//22 21//21
f 22//22 41//41 21//21
f 70//70 20//20 9//9
f 20//20 22//22 9//9
f 29//29 54//54 28//28
f 21//21 30//30 10//10
f 29//29 10//10 3//3
f 29//29 3//3 54//54
f 21//21 10//10 29//29
f 13//13 61//61 60//60
f 54//54 61//61 28//28
f 3//3 10//10 59//59
f 59//59 61//61 3//3
f 59//59 62//62 60//60
f 62//62 76//76 60//60
f 3//3 61//61 54//54
f 61//61 59//59 60//60
f 28//28 61//61 13//13
f 28//28 13//13 72//72
f 13//13 64//64 72//72
f 60//60 76//76 16//16
f 16//16 76//76 2//2
f 2//2 69//69 64//64
f 60//60 16//16 13//13
f 16//16 2//2 64//64
f 16//16 64//64 13//13
f 22//22 12//12 41//41
f 20//20 46//46 50//50
f 22//22 50//50 48//48
f 50//50 22//22 20//20
f 6//6 47//47 5//5
f 48//48 6//6 12//12
f 6//6 5//5 12//12
f 48//48 12//12 22//22
f 48//48 50//50 6//6
f 20//20 68//68 46//46
f 71//71 74//74 68//68
f 68//68 66//66 46//46
f 75//75 7//7 73//73
f 69//69 7//7 74//74
f 75//75 73//73 66//66
f 74//74 75//75 68//68
f 74//74 7//7 75//75
f 75//75 66//66 68//68
f 76//76 62//62 57//57
f 76//76 57//57 77//77
f 77//77 14//14 65//65
f 76//76 77//77 2//2
f 2//2 77//77 15//15
f 77//77 65//65 15//15
f 62//62 63//63 57//57
f 59//59 58//58 63//63
f 59//59 10//10 58//58
f 59//59 63//63 62//62
f 63//63 34//34 55//55
f 58//58 34//34 63//63
f 11//11 52//52 38//38
f 21//21 11//11 30//30
f 30//30 39//39 10//10
f 11//11 38//38 30//30
f 30//30 38//38 39//39
f 25//25 42//42 45//45
f 47//47 49//49 43//43
f 49//49 44//44 43//43
f 42//42 44//44 45//45
f 43//43 44//44 42//42
f 27//27 8//8 18//18
f 45//45 8//8 27//27
f 45//45 27//27 25//25
f 45//45 44//44 17//17
f 24//24 65//65 14//14
f 18//18 65//65 24//24
f 8//8 19//19 18//18
f 19//19 65//65 18//18
f 45//45 17//17 8//8
f 17//17 19//19 8//8
f 27//27 32//32 25//25
f 24//24 23//23 26//26
f 27//27 26//26 4//4
f 4//4 26//26 55//55
f 24//24 27//27 18//18
f 27//27 4//4 32//32
f 24//24 26//26 27//27
f 31//31 32//32 33//33
f 4//4 35//35 37//37
f 33//33 36//36 53//53
f 4//4 37//37 32//32
f 37//37 35//35 36//36
f 37//37 36//36 33//33
f 37//37 33//33 32//32
f 25//25 32//32 31//31
f 25//25 31//31 42//42
f 31//31 43//43 42//42
f 33//33 53//53 1//1
f 1//1 47//47 43//43
f 33//33 1//1 43//43
f 33//33 43//43 31//31
f 17//17 44//44 66//66
f 51//51 46//46 66//66
f 44//44 51//51 66//66
f 51//51 6//6 50//50
f 47//47 6//6 49//49
f 51//51 50//50 46//46
f 49//49 51//51 44//44
f 49//49 6//6 51//51
f 19//19 15//15 65//65
f 17//17 66//66 73//73
f 19//19 73//73 67//67
f 73//73 19//19 17//17
f 7//7 69//69 2//2
f 67//67 7//7 15//15
f 7//7 2//2 15//15
f 67//67 15//15 19//19
f 67//67 73//73 7//7
f 26//26 56//56 55//55
f 55//55 56//56 63//63
f 14//14 77//77 57//57
f 24//24 14//14 23//23
f 26//26 23//23 56//56
f 14//14 57//57 23//23
f 56//56 57//57 63//63
f 23//23 57//57 56//56
f 53//53 36//36 38//38
f 38//38 40//40 39//39
f 36//36 40//40 38//38
f 4//4 55//55 34//34
f 4//4 34//34 35//35
f 40//40 34//34 58//58
f 39//39 58//58 10//10
f 40//40 58//58 39//39
f 35//35 40//40 36//36
f 35//35 34//34 40//40
f 47//47 1//1 5//5
f 53//53 38//38 52//52
f 52//52 11//11 41//41
f 1//1 52//52 5//5
f 53//53 52//52 1//1
f 5//5 52//52 12//12
f 52//52 41//41 12//12
# 150 faces, 0 coords texture

# End of File
