####
#
# OBJ File Generated by Meshlab
#
####
# Object left_lower_arm.obj
#
# Vertices: 127
# Faces: 250
#
####
vn 0.996652 -0.038484 0.072137
v 0.039960 -0.001608 -0.050440
vn 0.790046 0.100262 -0.604793
v 0.032509 0.003410 -0.211304
vn 0.990547 0.045706 -0.129337
v 0.039960 0.001619 -0.189987
vn 0.986489 0.106403 0.124568
v 0.039509 0.006203 -0.049361
vn 0.906964 0.090256 0.411425
v 0.036444 0.003987 -0.035414
vn 0.497565 0.190551 -0.846238
v 0.020432 0.009253 -0.221127
vn 0.968481 0.236894 -0.076978
v 0.038875 0.009386 -0.189591
vn 0.634685 0.021179 0.772480
v 0.024331 0.000876 -0.019619
vn 0.938287 0.318509 0.134795
v 0.038224 0.011610 -0.048544
vn 0.893128 0.339919 -0.294580
v 0.034961 0.016489 -0.200177
vn 0.912130 0.406903 -0.049477
v 0.036301 0.016784 -0.189372
vn 0.877672 0.469313 0.097147
v 0.035996 0.017429 -0.051299
vn 0.828127 0.557381 -0.059427
v 0.032329 0.023541 -0.189607
vn 0.077376 -0.043483 -0.996053
v 0.001445 -0.001323 -0.228879
vn 0.189929 0.404297 -0.894690
v 0.008991 0.016138 -0.223555
vn 0.787575 0.607845 0.101244
v 0.030686 0.025771 -0.049139
vn 0.716595 0.494012 0.492386
v 0.028926 0.019953 -0.031000
vn 0.666140 0.723958 -0.179284
v 0.027061 0.029441 -0.194949
vn 0.591104 0.789765 0.163914
v 0.024199 0.031848 -0.043927
vn 0.340544 0.256546 0.904552
v 0.014820 0.008781 -0.015499
vn 0.482328 0.871457 -0.089005
v 0.020850 0.034127 -0.189461
vn 0.544770 0.540484 -0.641173
v 0.022566 0.022118 -0.213656
vn 0.343663 0.850852 -0.397424
v 0.012659 0.033918 -0.206184
vn 0.393118 0.916136 0.078439
v 0.016786 0.036300 -0.049740
vn 0.329395 0.611687 0.719262
v 0.011473 0.026618 -0.024572
vn 0.291788 0.951028 -0.102010
v 0.012103 0.038200 -0.189018
vn 0.221660 0.972330 0.073768
v 0.009372 0.038879 -0.050412
vn 0.212214 0.891728 0.399733
v 0.009584 0.035799 -0.034616
vn -0.031991 0.577803 0.815549
v -0.002248 0.022863 -0.018235
vn 0.087747 0.994910 -0.049544
v 0.002300 0.039926 -0.189390
vn 0.030618 0.994646 0.098706
v 0.001616 0.039960 -0.049760
vn 0.011248 0.697367 -0.716626
v -0.000861 0.029168 -0.216104
vn -0.113577 0.951349 -0.286417
v -0.002833 0.038878 -0.200990
vn -0.081377 0.996105 -0.033937
v -0.003916 0.039756 -0.189526
vn -0.103381 0.986066 0.130334
v -0.003916 0.039756 -0.050474
vn -0.223833 0.973119 -0.054202
v -0.009373 0.038878 -0.189591
vn -0.266957 0.956960 0.113849
v -0.010044 0.038710 -0.050445
vn -0.189688 0.881577 0.432250
v -0.007217 0.035413 -0.033992
vn -0.368083 0.923918 -0.104355
v -0.015288 0.036908 -0.189526
vn -0.396262 0.914714 0.079221
v -0.015288 0.036908 -0.050474
vn -0.055686 0.067412 0.996170
v -0.001420 0.002685 -0.012084
vn -0.600758 0.758879 -0.251382
v -0.024303 0.030411 -0.199334
vn -0.348628 0.311410 0.884015
v -0.012046 0.014852 -0.016594
vn -0.461100 0.668267 -0.583786
v -0.019277 0.027038 -0.210932
vn -0.496588 0.866003 -0.058641
v -0.020256 0.034483 -0.189600
vn -0.517580 0.852616 0.071812
v -0.020850 0.034127 -0.050417
vn -0.460804 0.837319 0.294206
v -0.018614 0.032855 -0.038280
vn -0.617579 0.785419 -0.041406
v -0.025343 0.030881 -0.189526
vn -0.380837 0.323383 -0.866249
v -0.014704 0.013189 -0.224058
vn -0.713859 0.698177 -0.054350
v -0.028248 0.028248 -0.189526
vn -0.642469 0.759680 0.100597
v -0.025329 0.030892 -0.048456
vn -0.776681 0.626964 0.060689
v -0.031284 0.025040 -0.050723
vn -0.515536 0.590319 0.621085
v -0.020692 0.024255 -0.027228
vn -0.737981 0.611512 0.285373
v -0.029976 0.024190 -0.040525
vn -0.828711 0.382598 -0.408482
v -0.034110 0.012504 -0.205785
vn -0.825151 0.553663 -0.112176
v -0.033043 0.022669 -0.188996
vn -0.874018 0.477335 0.090788
v -0.035232 0.018832 -0.050474
vn -0.911566 0.401439 -0.088853
v -0.036908 0.015288 -0.189526
vn -0.929278 0.362301 0.071975
v -0.036908 0.015288 -0.050474
vn -0.673989 0.225828 0.703378
v -0.026758 0.006967 -0.022732
vn -0.954474 0.285781 -0.085494
v -0.038710 0.010044 -0.189286
vn -0.973003 0.216880 0.078924
v -0.038879 0.009372 -0.050412
vn -0.880207 0.332059 0.339077
v -0.035155 0.012783 -0.036403
vn -0.981952 0.065830 -0.177306
v -0.039916 0.002373 -0.195329
vn -0.993566 0.058952 0.096699
v -0.039960 0.001616 -0.049760
vn -0.781297 -0.012165 -0.624041
v -0.031790 0.000288 -0.213134
vn -0.991544 -0.110362 -0.068272
v -0.039756 -0.003916 -0.189526
vn -0.990584 -0.118632 0.068335
v -0.039756 -0.003916 -0.050474
vn -0.465509 -0.217428 -0.857920
v -0.020147 -0.007668 -0.221853
vn -0.972497 -0.223553 -0.065375
v -0.038878 -0.009372 -0.189655
vn -0.958038 -0.263760 0.112218
v -0.038711 -0.010042 -0.050614
vn -0.549998 -0.094044 0.829854
v -0.022812 -0.003328 -0.018292
vn -0.917096 -0.253160 -0.307968
v -0.036449 -0.010892 -0.201750
vn -0.921627 -0.058021 0.383714
v -0.037698 -0.000778 -0.036536
vn -0.923167 -0.376024 -0.079803
v -0.036908 -0.015288 -0.189526
vn -0.909240 -0.406685 0.088826
v -0.036908 -0.015288 -0.050474
vn -0.798083 -0.518252 -0.307374
v -0.032559 -0.020522 -0.199876
vn -0.178406 -0.307296 0.934741
v -0.007737 -0.012719 -0.014958
vn -0.673886 -0.428825 -0.601654
v -0.027555 -0.016365 -0.211910
vn -0.825949 -0.404548 0.392619
v -0.032350 -0.016760 -0.034585
vn -0.850717 -0.521872 -0.062686
v -0.033590 -0.021850 -0.189929
vn -0.804218 -0.587812 0.087809
v -0.033043 -0.022670 -0.050987
vn -0.682352 -0.730785 0.018673
v -0.026595 -0.029869 -0.051098
vn -0.691339 -0.712067 -0.122516
v -0.027090 -0.029415 -0.194708
vn -0.469273 -0.534916 0.702601
v -0.020533 -0.020634 -0.023806
vn -0.501041 -0.785066 -0.364183
v -0.020694 -0.031360 -0.202835
vn -0.611942 -0.752679 0.242902
v -0.023708 -0.032216 -0.043517
vn -0.518050 -0.853097 -0.062051
v -0.020848 -0.034129 -0.189350
vn -0.324730 -0.932445 0.158419
v -0.016350 -0.036494 -0.046417
vn -0.334011 -0.663941 -0.669043
v -0.012437 -0.027835 -0.214695
vn -0.337615 -0.936284 -0.096895
v -0.013808 -0.037533 -0.189350
vn 0.020959 -0.619340 0.784843
v 0.000866 -0.025640 -0.020587
vn -0.259207 -0.813243 0.521006
v -0.008869 -0.032528 -0.029386
vn 0.063979 -0.913296 0.402240
v 0.005036 -0.036346 -0.034544
vn -0.156840 -0.985939 -0.057673
v -0.006217 -0.039506 -0.189634
vn -0.149452 -0.985055 0.085619
v -0.007332 -0.039395 -0.051371
vn -0.120545 -0.438852 -0.890437
v -0.006579 -0.017087 -0.223642
vn 0.115956 -0.753293 -0.647382
v 0.004044 -0.030599 -0.214211
vn -0.100110 -0.948794 -0.299614
v -0.003523 -0.038943 -0.198148
vn 0.045455 -0.993218 -0.107010
v 0.001612 -0.039960 -0.189817
vn 0.012497 -0.995753 0.091217
v 0.002300 -0.039926 -0.050860
vn 0.294772 -0.271810 0.916094
v 0.010461 -0.011800 -0.014958
vn 0.189593 -0.977153 -0.096059
v 0.007794 -0.039181 -0.189526
vn 0.223408 -0.966878 0.123431
v 0.007980 -0.039136 -0.045456
vn 0.390936 -0.880559 -0.267927
v 0.018022 -0.034859 -0.197950
vn 0.365502 -0.930077 -0.036933
v 0.014890 -0.037203 -0.189141
vn 0.376472 -0.921838 0.092105
v 0.013807 -0.037533 -0.050438
vn 0.467718 -0.881036 0.070823
v 0.018832 -0.035232 -0.050474
vn 0.537024 -0.842521 -0.041989
v 0.022194 -0.033216 -0.189526
vn 0.560384 -0.825162 0.071254
v 0.022194 -0.033216 -0.050474
vn 0.460537 -0.846035 0.268571
v 0.018760 -0.032807 -0.038323
vn 0.654367 -0.753313 -0.065745
v 0.026598 -0.029866 -0.189484
vn 0.311921 -0.434312 -0.845031
v 0.012173 -0.017684 -0.221640
vn 0.550927 -0.627877 -0.549773
v 0.020091 -0.026695 -0.210503
vn 0.777478 -0.609417 -0.155367
v 0.032422 -0.023324 -0.195352
vn 0.671721 -0.728842 0.132589
v 0.027103 -0.029408 -0.048197
vn 0.537052 -0.643826 0.545036
v 0.023104 -0.024942 -0.029270
vn 0.745537 -0.666362 -0.011668
v 0.030881 -0.025343 -0.189526
vn 0.914075 -0.237969 -0.328387
v 0.036888 -0.011289 -0.201696
vn 0.787571 -0.597623 0.150263
v 0.030890 -0.025332 -0.048544
vn 0.856178 -0.504739 0.110441
v 0.034489 -0.020246 -0.050792
vn 0.682119 -0.323594 -0.655744
v 0.029180 -0.012390 -0.213154
vn 0.915330 -0.399749 -0.048695
v 0.036003 -0.017413 -0.189660
vn 0.958477 -0.225499 0.174561
v 0.038526 -0.011009 -0.045064
vn 0.777134 -0.358078 0.517535
v 0.031288 -0.014163 -0.029978
vn 0.533648 -0.116280 -0.837675
v 0.023350 -0.005960 -0.220117
vn 0.979244 -0.195149 -0.054760
v 0.039203 -0.008296 -0.189740
# 127 vertices, 0 vertices normals

f 126//126 14//14 6//6
f 119//119 2//2 10//10
f 1//1 3//3 4//4
f 1//1 4//4 124//124
f 124//124 4//4 5//5
f 126//126 6//6 2//2
f 119//119 10//10 3//3
f 3//3 10//10 7//7
f 3//3 7//7 4//4
f 102//102 20//20 41//41
f 4//4 7//7 9//9
f 4//4 9//9 5//5
f 5//5 9//9 17//17
f 5//5 17//17 8//8
f 6//6 14//14 15//15
f 2//2 6//6 22//22
f 2//2 22//22 10//10
f 7//7 10//10 11//11
f 7//7 11//11 9//9
f 9//9 11//11 12//12
f 9//9 12//12 17//17
f 8//8 17//17 20//20
f 11//11 10//10 13//13
f 11//11 13//13 12//12
f 12//12 13//13 16//16
f 12//12 16//16 17//17
f 17//17 16//16 19//19
f 10//10 22//22 18//18
f 10//10 18//18 13//13
f 13//13 18//18 16//16
f 6//6 15//15 22//22
f 16//16 18//18 19//19
f 22//22 23//23 18//18
f 18//18 21//21 19//19
f 19//19 28//28 17//17
f 20//20 17//17 25//25
f 18//18 23//23 21//21
f 19//19 21//21 24//24
f 19//19 24//24 28//28
f 17//17 28//28 25//25
f 21//21 23//23 26//26
f 21//21 26//26 24//24
f 25//25 29//29 20//20
f 20//20 29//29 41//41
f 22//22 15//15 32//32
f 22//22 32//32 23//23
f 24//24 26//26 27//27
f 24//24 27//27 28//28
f 15//15 14//14 49//49
f 15//15 49//49 32//32
f 23//23 33//33 26//26
f 26//26 33//33 30//30
f 26//26 30//30 27//27
f 27//27 30//30 31//31
f 27//27 31//31 28//28
f 25//25 28//28 29//29
f 23//23 32//32 33//33
f 30//30 33//33 34//34
f 30//30 34//34 31//31
f 31//31 34//34 35//35
f 31//31 35//35 28//28
f 28//28 35//35 38//38
f 34//34 33//33 36//36
f 34//34 36//36 35//35
f 35//35 36//36 37//37
f 35//35 37//37 38//38
f 28//28 38//38 29//29
f 38//38 37//37 47//47
f 32//32 44//44 33//33
f 33//33 44//44 42//42
f 36//36 33//33 39//39
f 36//36 39//39 37//37
f 37//37 39//39 40//40
f 37//37 40//40 47//47
f 29//29 38//38 53//53
f 32//32 49//49 44//44
f 33//33 42//42 39//39
f 39//39 42//42 45//45
f 39//39 45//45 40//40
f 40//40 45//45 46//46
f 40//40 46//46 47//47
f 38//38 47//47 53//53
f 29//29 53//53 43//43
f 41//41 29//29 43//43
f 47//47 46//46 51//51
f 45//45 42//42 48//48
f 45//45 48//48 46//46
f 46//46 48//48 51//51
f 48//48 42//42 50//50
f 48//48 50//50 51//51
f 51//51 50//50 52//52
f 47//47 51//51 54//54
f 47//47 54//54 53//53
f 50//50 42//42 56//56
f 50//50 56//56 52//52
f 51//51 52//52 54//54
f 44//44 49//49 55//55
f 44//44 55//55 42//42
f 54//54 63//63 53//53
f 53//53 60//60 43//43
f 42//42 55//55 56//56
f 52//52 56//56 57//57
f 52//52 57//57 54//54
f 54//54 57//57 63//63
f 53//53 63//63 60//60
f 56//56 55//55 58//58
f 56//56 58//58 57//57
f 57//57 58//58 59//59
f 57//57 59//59 63//63
f 43//43 60//60 72//72
f 43//43 72//72 41//41
f 49//49 66//66 55//55
f 58//58 55//55 61//61
f 58//58 61//61 59//59
f 59//59 61//61 62//62
f 59//59 62//62 63//63
f 60//60 63//63 74//74
f 49//49 14//14 69//69
f 55//55 64//64 61//61
f 61//61 64//64 62//62
f 62//62 64//64 65//65
f 62//62 65//65 63//63
f 63//63 65//65 74//74
f 49//49 69//69 66//66
f 55//55 66//66 64//64
f 64//64 66//66 73//73
f 64//64 67//67 65//65
f 65//65 67//67 68//68
f 65//65 68//68 74//74
f 64//64 73//73 67//67
f 67//67 73//73 70//70
f 67//67 70//70 68//68
f 68//68 70//70 71//71
f 68//68 71//71 74//74
f 74//74 72//72 60//60
f 74//74 71//71 80//80
f 74//74 80//80 72//72
f 69//69 14//14 97//97
f 66//66 69//69 79//79
f 66//66 79//79 73//73
f 73//73 79//79 77//77
f 70//70 73//73 75//75
f 70//70 75//75 71//71
f 71//71 75//75 76//76
f 71//71 76//76 80//80
f 72//72 80//80 85//85
f 73//73 77//77 75//75
f 75//75 77//77 81//81
f 75//75 81//81 76//76
f 76//76 81//81 82//82
f 76//76 82//82 80//80
f 41//41 72//72 78//78
f 80//80 82//82 87//87
f 72//72 85//85 78//78
f 69//69 90//90 79//79
f 79//79 90//90 86//86
f 79//79 86//86 77//77
f 77//77 86//86 84//84
f 77//77 84//84 81//81
f 81//81 84//84 82//82
f 82//82 84//84 83//83
f 82//82 83//83 87//87
f 80//80 87//87 85//85
f 69//69 97//97 90//90
f 84//84 88//88 83//83
f 83//83 88//88 87//87
f 87//87 93//93 85//85
f 84//84 86//86 88//88
f 87//87 88//88 89//89
f 87//87 89//89 93//93
f 88//88 86//86 91//91
f 88//88 91//91 89//89
f 93//93 92//92 85//85
f 85//85 92//92 78//78
f 78//78 102//102 41//41
f 90//90 97//97 98//98
f 86//86 90//90 99//99
f 89//89 91//91 96//96
f 86//86 99//99 91//91
f 91//91 99//99 95//95
f 91//91 95//95 96//96
f 93//93 89//89 94//94
f 89//89 96//96 94//94
f 90//90 98//98 99//99
f 95//95 99//99 100//100
f 95//95 100//100 96//96
f 96//96 100//100 101//101
f 96//96 101//101 94//94
f 78//78 92//92 102//102
f 99//99 98//98 105//105
f 94//94 101//101 104//104
f 99//99 105//105 100//100
f 100//100 105//105 103//103
f 100//100 103//103 101//101
f 101//101 103//103 104//104
f 93//93 94//94 92//92
f 103//103 105//105 106//106
f 103//103 106//106 104//104
f 104//104 106//106 107//107
f 104//104 107//107 111//111
f 97//97 14//14 113//113
f 97//97 113//113 98//98
f 98//98 114//114 105//105
f 104//104 111//111 94//94
f 92//92 94//94 117//117
f 98//98 113//113 114//114
f 107//107 106//106 108//108
f 107//107 108//108 111//111
f 94//94 111//111 117//117
f 106//106 105//105 109//109
f 106//106 109//109 108//108
f 108//108 109//109 110//110
f 108//108 110//110 111//111
f 111//111 110//110 116//116
f 109//109 105//105 112//112
f 109//109 112//112 110//110
f 110//110 112//112 116//116
f 117//117 102//102 92//92
f 113//113 122//122 114//114
f 105//105 114//114 115//115
f 105//105 115//115 112//112
f 111//111 116//116 117//117
f 113//113 126//126 122//122
f 112//112 115//115 118//118
f 112//112 118//118 116//116
f 116//116 118//118 120//120
f 116//116 120//120 117//117
f 113//113 14//14 126//126
f 114//114 122//122 119//119
f 114//114 119//119 115//115
f 118//118 115//115 120//120
f 120//120 115//115 121//121
f 117//117 125//125 102//102
f 115//115 119//119 123//123
f 115//115 123//123 121//121
f 120//120 121//121 125//125
f 120//120 125//125 117//117
f 121//121 123//123 124//124
f 121//121 124//124 125//125
f 102//102 125//125 8//8
f 123//123 119//119 127//127
f 123//123 127//127 124//124
f 102//102 8//8 20//20
f 122//122 126//126 2//2
f 124//124 127//127 1//1
f 122//122 2//2 119//119
f 127//127 119//119 3//3
f 127//127 3//3 1//1
f 124//124 5//5 125//125
f 125//125 5//5 8//8
# 250 faces, 0 coords texture

# End of File
