####
#
# OBJ File Generated by Meshlab
#
####
# Object left_hand.obj
#
# Vertices: 77
# Faces: 150
#
####
vn -0.215097 0.030180 -0.976126
v -0.009368 0.001042 -0.039719
vn -0.226613 -0.973080 0.041970
v -0.009471 -0.039592 0.003314
vn 0.121951 0.853490 0.506639
v 0.004281 0.034146 0.021320
vn 0.149390 -0.962554 -0.226214
v 0.006037 -0.038984 -0.010599
vn -0.120201 0.978698 -0.166439
v -0.006530 0.039582 -0.007493
vn 0.033419 -0.254051 -0.966613
v -0.000490 -0.010984 -0.038695
vn 0.805545 0.119941 -0.580268
v 0.032106 0.003255 -0.024518
vn 0.448332 -0.019426 -0.893656
v 0.017044 -0.001483 -0.037348
vn 0.653469 0.756620 0.022452
v 0.024169 0.032576 0.001127
vn 0.122834 -0.664611 0.737024
v 0.003116 -0.027948 0.029605
vn 0.208735 -0.021180 0.977743
v 0.008231 -0.000307 0.040150
vn 0.963205 -0.017664 -0.268187
v 0.039660 -0.005260 -0.007498
vn -0.674564 -0.337140 0.656734
v -0.026209 -0.014273 0.028021
vn -0.997305 -0.015004 0.071820
v -0.040444 -0.001634 0.003753
vn -0.884809 0.399406 0.239976
v -0.036090 0.016166 0.009617
vn -0.514225 -0.744263 0.426198
v -0.020624 -0.031026 0.016506
vn -0.091617 -0.878814 0.468287
v -0.004258 -0.035036 0.020089
vn -0.226861 0.772427 0.593203
v -0.010048 0.031904 0.022982
vn 0.521932 0.740216 0.423871
v 0.020154 0.031169 0.016611
vn -0.087209 0.968388 0.233709
v -0.004726 0.038895 0.009852
vn 0.303722 0.936880 0.173233
v 0.011386 0.038145 0.006620
vn -0.121755 -0.857857 -0.499256
v -0.005178 -0.034884 -0.019814
vn -0.434308 -0.870854 -0.230195
v -0.017664 -0.035060 -0.009281
vn 0.197497 -0.972743 0.121516
v 0.009694 -0.039212 0.005323
vn 0.281129 -0.553325 -0.784091
v 0.013463 -0.021922 -0.032084
vn -0.200254 0.802422 -0.562155
v -0.007947 0.033174 -0.023539
vn 0.191212 0.980391 -0.047664
v 0.008764 0.039564 0.000310
vn 0.193444 0.891686 -0.409239
v 0.009348 0.034928 -0.018267
vn 0.826565 0.449771 -0.338374
v 0.032066 0.019676 -0.014656
vn 0.511527 0.810342 -0.285808
v 0.020912 0.033121 -0.011747
vn 0.550675 -0.831721 -0.070696
v 0.024186 -0.032350 -0.004061
vn 0.321208 -0.814415 -0.483274
v 0.012093 -0.033271 -0.020033
vn 0.678735 -0.619511 -0.394367
v 0.027144 -0.025097 -0.016510
vn 0.914116 -0.396800 -0.083316
v 0.037699 -0.015992 -0.002357
vn 0.757453 -0.289102 -0.585393
v 0.030020 -0.010546 -0.026016
vn 0.305258 0.683803 -0.662745
v 0.014020 0.026530 -0.027105
vn 0.108348 0.117635 -0.987129
v 0.005135 0.004855 -0.039945
vn 0.344063 0.387311 -0.855343
v 0.014764 0.016919 -0.034154
vn 0.622598 0.438686 -0.648018
v 0.025357 0.018195 -0.026234
vn 0.832022 0.493073 0.254204
v 0.034294 0.018939 0.010720
vn 0.918847 0.386579 -0.079228
v 0.037453 0.016417 -0.002678
vn 0.366528 -0.844981 0.389441
v 0.015193 -0.035416 0.013834
vn 0.644832 -0.687930 0.333082
v 0.025376 -0.026982 0.016508
vn 0.775907 -0.629516 0.040966
v 0.031422 -0.025400 0.000623
vn 0.825428 -0.038106 0.563220
v 0.032455 -0.002838 0.023495
vn 0.340739 -0.377345 0.861108
v 0.014428 -0.015478 0.035017
vn 0.526650 -0.566473 0.633836
v 0.021818 -0.023470 0.024464
vn 0.818328 -0.395373 0.417156
v 0.032430 -0.017117 0.017155
vn 0.634654 -0.181257 0.751239
v 0.026657 -0.004916 0.030089
vn 0.267863 0.571760 0.775461
v 0.012774 0.022311 0.031971
vn 0.769992 0.338833 0.540652
v 0.032834 0.012687 0.020581
vn 0.557016 0.192321 0.807927
v 0.022950 0.007903 0.032465
vn 0.976329 0.008794 0.216114
v 0.040342 0.000227 0.006907
vn -0.653135 0.644750 -0.397130
v -0.026102 0.027315 -0.014950
vn -0.446726 -0.746043 -0.493818
v -0.018972 -0.030325 -0.018718
vn -0.692236 -0.660095 -0.291690
v -0.028975 -0.025468 -0.012333
vn -0.905224 -0.066278 -0.419734
v -0.037722 -0.002562 -0.015781
vn -0.678029 -0.442856 -0.586647
v -0.024992 -0.020434 -0.024924
vn -0.266936 -0.497814 -0.825182
v -0.012130 -0.020051 -0.033566
vn -0.432980 0.412035 -0.801721
v -0.015861 0.017286 -0.033416
vn -0.005442 0.472184 -0.881483
v -0.000261 0.019627 -0.035600
vn -0.915712 0.350636 -0.196281
v -0.036570 0.015746 -0.007575
vn -0.579198 -0.068742 -0.812283
v -0.021014 -0.001723 -0.034681
vn -0.605939 0.573720 0.551074
v -0.024547 0.022559 0.024242
vn -0.530093 0.844725 0.073756
v -0.020780 0.035346 0.002401
vn -0.785640 0.617865 -0.031838
v -0.032164 0.024317 -0.001549
vn -0.654663 -0.754287 0.049670
v -0.025492 -0.031501 0.002464
vn -0.031878 -0.302071 0.952752
v -0.001281 -0.009991 0.039146
vn -0.740661 0.122106 0.660690
v -0.032158 0.004652 0.025458
vn -0.297990 -0.544764 0.783858
v -0.012702 -0.021880 0.032320
vn -0.323929 -0.065113 0.943838
v -0.014965 -0.003983 0.037471
vn -0.849348 -0.430115 0.305957
v -0.034452 -0.016926 0.013360
vn -0.285953 0.390228 0.875187
v -0.012100 0.014338 0.036591
vn 0.087054 0.233452 0.968464
v 0.003608 0.009952 0.039278
vn -0.757142 0.268247 -0.595634
v -0.031323 0.008940 -0.024224
vn -0.917240 -0.064140 0.393138
v -0.037300 -0.002171 0.015410
vn -0.901823 -0.409882 -0.136790
v -0.037907 -0.015412 -0.004385
# 77 vertices, 0 vertices normals

f 15//15 64//64 65//65
f 65//65 64//64 18//18
f 64//64 73//73 18//18
f 65//65 18//18 20//20
f 5//5 20//20 27//27
f 20//20 5//5 65//65
f 18//18 50//50 3//3
f 73//73 50//50 18//18
f 3//3 19//19 21//21
f 21//21 19//19 9//9
f 18//18 3//3 20//20
f 3//3 21//21 20//20
f 20//20 21//21 27//27
f 65//65 5//5 26//26
f 21//21 9//9 30//30
f 21//21 30//30 27//27
f 27//27 28//28 5//5
f 30//30 28//28 27//27
f 28//28 36//36 26//26
f 26//26 36//36 61//61
f 28//28 26//26 5//5
f 65//65 26//26 54//54
f 26//26 61//61 60//60
f 54//54 75//75 62//62
f 26//26 60//60 54//54
f 60//60 75//75 54//54
f 54//54 66//66 65//65
f 54//54 62//62 66//66
f 65//65 66//66 15//15
f 62//62 75//75 57//57
f 15//15 69//69 64//64
f 15//15 14//14 76//76
f 76//76 69//69 15//15
f 62//62 57//57 14//14
f 62//62 14//14 15//15
f 62//62 15//15 66//66
f 9//9 19//19 40//40
f 3//3 50//50 19//19
f 51//51 50//50 52//52
f 51//51 52//52 45//45
f 19//19 51//51 40//40
f 51//51 19//19 50//50
f 73//73 64//64 69//69
f 69//69 13//13 71//71
f 71//71 13//13 70//70
f 68//68 70//70 10//10
f 70//70 68//68 71//71
f 69//69 71//71 73//73
f 73//73 71//71 74//74
f 71//71 11//11 74//74
f 71//71 68//68 11//11
f 14//14 72//72 76//76
f 14//14 57//57 77//77
f 77//77 58//58 56//56
f 72//72 77//77 67//67
f 77//77 56//56 67//67
f 77//77 72//72 14//14
f 57//57 75//75 63//63
f 75//75 60//60 63//63
f 61//61 37//37 1//1
f 60//60 1//1 63//63
f 61//61 1//1 60//60
f 63//63 1//1 59//59
f 1//1 37//37 6//6
f 59//59 6//6 25//25
f 6//6 59//59 1//1
f 61//61 36//36 38//38
f 38//38 36//36 39//39
f 7//7 39//39 29//29
f 39//39 7//7 8//8
f 28//28 30//30 36//36
f 30//30 29//29 39//39
f 30//30 39//39 36//36
f 31//31 43//43 42//42
f 31//31 42//42 24//24
f 44//44 48//48 43//43
f 47//47 49//49 46//46
f 45//45 49//49 48//48
f 48//48 49//49 47//47
f 42//42 47//47 10//10
f 47//47 46//46 10//10
f 43//43 47//47 42//42
f 47//47 43//43 48//48
f 24//24 2//2 4//4
f 17//17 10//10 70//70
f 17//17 16//16 2//2
f 2//2 16//16 67//67
f 10//10 17//17 42//42
f 42//42 17//17 24//24
f 17//17 2//2 24//24
f 31//31 24//24 4//4
f 2//2 67//67 23//23
f 23//23 55//55 22//22
f 2//2 22//22 4//4
f 23//23 22//22 2//2
f 22//22 59//59 25//25
f 32//32 22//22 25//25
f 4//4 22//22 32//32
f 4//4 32//32 31//31
f 32//32 33//33 31//31
f 31//31 33//33 44//44
f 33//33 35//35 34//34
f 32//32 25//25 33//33
f 25//25 35//35 33//33
f 31//31 44//44 43//43
f 33//33 34//34 44//44
f 44//44 34//34 48//48
f 34//34 35//35 12//12
f 35//35 7//7 12//12
f 48//48 53//53 45//45
f 53//53 48//48 34//34
f 12//12 53//53 34//34
f 10//10 46//46 68//68
f 46//46 11//11 68//68
f 49//49 45//45 52//52
f 52//52 50//50 74//74
f 74//74 50//50 73//73
f 49//49 52//52 11//11
f 49//49 11//11 46//46
f 11//11 52//52 74//74
f 16//16 72//72 67//67
f 17//17 70//70 16//16
f 72//72 13//13 76//76
f 13//13 69//69 76//76
f 16//16 13//13 72//72
f 13//13 16//16 70//70
f 22//22 55//55 59//59
f 59//59 55//55 58//58
f 23//23 56//56 55//55
f 23//23 67//67 56//56
f 59//59 58//58 63//63
f 57//57 58//58 77//77
f 58//58 57//57 63//63
f 55//55 56//56 58//58
f 8//8 38//38 39//39
f 35//35 8//8 7//7
f 35//35 25//25 8//8
f 8//8 6//6 37//37
f 6//6 8//8 25//25
f 38//38 37//37 61//61
f 8//8 37//37 38//38
f 45//45 53//53 51//51
f 53//53 40//40 51//51
f 53//53 12//12 41//41
f 12//12 7//7 29//29
f 12//12 29//29 41//41
f 41//41 29//29 9//9
f 9//9 29//29 30//30
f 41//41 9//9 40//40
f 41//41 40//40 53//53
# 150 faces, 0 coords texture

# End of File
