####
#
# OBJ File Generated by Meshlab
#
####
# Object body_pelvis.obj
#
# Vertices: 129
# Faces: 250
#
####
vn -0.013443 0.989374 0.144767
v 0.001736 0.090517 0.087062
vn 0.976118 -0.216751 0.014615
v 0.090097 -0.017672 0.069474
vn 0.518714 -0.852214 0.068314
v 0.047174 -0.078478 0.075927
vn -0.120958 -0.954628 0.272132
v -0.009266 -0.085535 0.099227
vn 0.345290 -0.214643 -0.913621
v 0.026637 -0.019700 -0.015529
vn 0.293655 0.119506 -0.948412
v 0.023642 0.012302 -0.018495
vn 0.686761 0.337790 -0.643628
v 0.063902 0.030362 0.012152
vn 0.448294 0.721847 -0.527228
v 0.040228 0.067218 0.020605
vn 0.742592 0.547079 0.386344
v 0.071697 0.045876 0.106935
vn 0.151163 -0.562527 0.812843
v 0.015011 -0.048581 0.146012
vn 0.558666 -0.691919 0.457319
v 0.048265 -0.067039 0.112086
vn -0.636088 -0.611561 0.470516
v -0.061594 -0.051839 0.113227
vn -0.058796 0.729400 0.681556
v -0.007805 0.066746 0.132844
vn -0.777839 0.213495 0.591089
v -0.071718 0.020262 0.123819
vn -0.888247 0.459282 0.008803
v -0.081110 0.039960 0.071160
vn 0.308502 0.941234 -0.137500
v 0.028468 0.086064 0.058787
vn 0.206364 -0.878715 0.430435
v 0.024439 -0.078844 0.110392
vn -0.215373 -0.812566 0.541618
v -0.020002 -0.072374 0.123222
vn -0.364339 0.845145 0.391134
v -0.030475 0.080608 0.101365
vn 0.287104 -0.157322 0.944892
v 0.026850 -0.013639 0.156459
vn -0.408584 -0.830662 -0.378233
v -0.034342 -0.075686 0.033439
vn 0.420464 -0.828937 -0.368881
v 0.039907 -0.076256 0.038135
vn 0.147956 -0.988950 -0.009289
v 0.010876 -0.090132 0.072242
vn -0.183236 -0.977582 -0.103717
v -0.018313 -0.089344 0.061105
vn -0.348039 0.869975 -0.349302
v -0.027014 0.081416 0.036000
vn -0.025150 0.894540 -0.446279
v -0.007598 0.081579 0.028300
vn -0.007835 0.625270 -0.780369
v 0.001501 0.056128 -0.002135
vn 0.670571 0.737997 -0.075468
v 0.063611 0.065760 0.060794
vn 0.872393 -0.333590 -0.357279
v 0.076756 -0.033461 0.035343
vn 0.213673 -0.593926 -0.775626
v 0.020789 -0.058136 0.001589
vn 0.618543 -0.442429 -0.649355
v 0.057279 -0.033315 0.005489
vn 0.719340 -0.028934 -0.694055
v 0.069843 -0.000418 0.010246
vn 0.250201 0.442077 -0.861375
v 0.022161 0.040827 -0.009441
vn 0.456853 0.855699 0.243034
v 0.041787 0.077900 0.094383
vn 0.724294 -0.637399 -0.262910
v 0.068479 -0.058162 0.051165
vn -0.206782 -0.187768 0.960200
v -0.022064 -0.015217 0.157469
vn 0.825597 -0.420000 0.376816
v 0.075237 -0.036102 0.106403
vn 0.582814 -0.374149 0.721346
v 0.048620 -0.039040 0.137210
vn 0.296436 0.788380 0.539058
v 0.022279 0.072300 0.121620
vn 0.391661 0.515426 0.762193
v 0.035567 0.048123 0.139510
vn 0.703411 0.098652 0.703905
v 0.064632 0.008069 0.136200
vn 0.410402 0.182901 0.893374
v 0.041140 0.015760 0.150730
vn 0.950206 0.057496 -0.306272
v 0.087047 0.003120 0.041232
vn 0.872700 0.447167 -0.196053
v 0.081207 0.039717 0.052768
vn 0.840469 -0.539002 0.055567
v 0.078567 -0.046890 0.072713
vn 0.966257 0.170268 0.193278
v 0.088726 0.013437 0.090829
vn 0.884161 -0.154223 0.440993
v 0.084101 -0.010075 0.107528
vn -0.543691 -0.834098 0.093174
v -0.050414 -0.077782 0.073667
vn -0.756188 -0.600775 -0.259325
v -0.068208 -0.055734 0.046858
vn -0.809731 0.122475 -0.573878
v -0.072288 0.010324 0.016055
vn -0.038688 -0.863837 -0.502283
v -0.000206 -0.079580 0.024480
vn -0.350778 -0.220022 -0.910245
v -0.033386 -0.023108 -0.011824
vn -0.016210 -0.213233 -0.976867
v -0.000444 -0.018186 -0.019204
vn -0.144506 -0.531602 -0.834576
v -0.014165 -0.044291 -0.008076
vn -0.512155 -0.543130 -0.665363
v -0.049109 -0.049913 0.008881
vn -0.337939 0.596546 -0.727963
v -0.032112 0.053075 0.003648
vn -0.228244 0.212683 -0.950090
v -0.021935 0.019644 -0.016741
vn -0.603447 0.575466 -0.551988
v -0.054518 0.049948 0.017305
vn -0.612537 0.298661 -0.731847
v -0.055048 0.023547 0.001360
vn -0.624496 -0.070102 -0.777875
v -0.058006 -0.004162 -0.000016
vn -0.713352 0.625141 0.316745
v -0.064052 0.057315 0.101293
vn -0.458538 0.888282 0.026405
v -0.045386 0.079083 0.069851
vn -0.700246 0.690800 -0.180141
v -0.063082 0.064248 0.051735
vn -0.332272 -0.531331 0.779283
v -0.028367 -0.052763 0.141336
vn -0.874866 -0.446558 0.187604
v -0.082982 -0.035549 0.088910
vn -0.439379 0.528643 0.726280
v -0.037887 0.044870 0.140189
vn -0.007822 0.273772 0.961763
v 0.000335 0.024282 0.159942
vn -0.701378 -0.221684 0.677440
v -0.062939 -0.021625 0.133428
vn -0.470740 0.133366 0.872134
v -0.042503 0.014199 0.149954
vn -0.839857 -0.233255 -0.490134
v -0.078505 -0.022511 0.029134
vn -0.841564 0.391982 -0.371645
v -0.076760 0.038152 0.039607
vn -0.968059 -0.077400 0.238476
v -0.089438 -0.011108 0.088779
vn -0.934450 0.083281 -0.346219
v -0.085219 0.010988 0.040553
vn -0.958599 -0.226516 -0.172562
v -0.085779 -0.023963 0.049532
vn -0.932209 0.269744 0.241299
v -0.084952 0.021830 0.095654
vn -0.982545 0.162377 -0.090771
v -0.088516 0.016115 0.057943
vn -0.490656 -0.826876 0.274833
v -0.034943 -0.058711 0.227743
vn -0.276456 0.935364 0.220603
v -0.021244 0.067662 0.219790
vn -0.069103 -0.987150 -0.144081
v -0.006261 -0.071660 0.195440
vn 0.852479 -0.498007 -0.158961
v 0.062217 -0.036928 0.192170
vn -0.305080 -0.746711 -0.591058
v -0.021060 -0.052973 0.162908
vn -0.953258 0.254335 0.163135
v -0.068855 0.014991 0.218049
vn -0.028909 -0.919662 0.391645
v 0.001815 -0.064936 0.233341
vn -0.176933 0.718184 0.672983
v -0.010056 0.050404 0.253496
vn -0.080616 -0.456266 -0.886184
v -0.004997 -0.029853 0.139571
vn 0.325975 -0.923608 0.201715
v 0.021807 -0.068473 0.212909
vn 0.494731 -0.838437 -0.228615
v 0.038214 -0.060032 0.189823
vn 0.134719 -0.791607 -0.595995
v 0.010932 -0.055989 0.162296
vn -0.249419 0.895118 -0.369531
v -0.019417 0.062665 0.178740
vn 0.225289 0.788660 -0.572067
v 0.013657 0.057087 0.164531
vn 0.233730 0.971906 -0.027737
v 0.014653 0.070995 0.203284
vn 0.511653 0.785439 -0.348277
v 0.036897 0.056691 0.183552
vn 0.457232 -0.527459 -0.716048
v 0.031980 -0.037094 0.153477
vn 0.699608 0.458435 -0.548075
v 0.048459 0.027100 0.158386
vn 0.365562 0.338220 -0.867163
v 0.028508 0.022933 0.142954
vn 0.724008 -0.123918 -0.678569
v 0.051639 -0.010141 0.155299
vn 0.592067 0.684791 0.424874
v 0.045907 0.046071 0.237837
vn 0.703976 0.706069 -0.076711
v 0.051195 0.050752 0.203028
vn 0.665672 -0.611461 0.427781
v 0.048876 -0.043147 0.234126
vn 0.227283 -0.736852 0.636703
v 0.018111 -0.050912 0.251694
vn 0.331106 -0.425681 0.842119
v 0.023118 -0.030601 0.265192
vn 0.906173 -0.134228 0.401040
v 0.063446 -0.008541 0.238905
vn 0.149876 0.861869 0.484478
v 0.010882 0.062175 0.238197
vn 0.713961 0.332256 0.616332
v 0.048623 0.027984 0.249052
vn 0.240598 0.500120 0.831861
v 0.013098 0.036869 0.264668
vn 0.574242 -0.046675 0.817354
v 0.043269 -0.003563 0.263813
vn 0.085364 -0.015717 0.996226
v 0.010141 0.001222 0.276117
vn 0.907876 0.132255 -0.397831
v 0.062991 0.011295 0.173880
vn 0.983786 -0.129523 -0.124051
v 0.071083 -0.010687 0.201395
vn 0.941999 0.331590 0.051825
v 0.069826 0.021227 0.207069
vn -0.707044 0.703961 -0.067285
v -0.047504 0.054412 0.199433
vn -0.516027 -0.823170 -0.236869
v -0.033923 -0.061234 0.188666
vn -0.781454 -0.449421 -0.432841
v -0.057417 -0.029262 0.172821
vn -0.462009 -0.404341 -0.789339
v -0.029773 -0.032768 0.149711
vn -0.713626 -0.001990 -0.700524
v -0.050700 0.000764 0.152894
vn -0.117318 0.556138 -0.822768
v -0.007230 0.041663 0.146893
vn 0.158177 -0.042374 -0.986501
v 0.008790 -0.006038 0.132961
vn -0.380121 0.090396 -0.920509
v -0.031173 0.009851 0.140388
vn -0.607701 0.547349 -0.575421
v -0.045315 0.040946 0.166865
vn -0.928249 -0.346675 0.134795
v -0.065789 -0.027142 0.217307
vn -0.756194 -0.651023 -0.065876
v -0.054574 -0.044708 0.198661
vn -0.208612 -0.737057 0.642828
v -0.014926 -0.049191 0.253593
vn -0.139180 -0.463238 0.875237
v -0.014451 -0.034278 0.266440
vn -0.386759 -0.125638 0.913582
v -0.025803 -0.010839 0.270003
vn -0.606235 -0.474800 0.638000
v -0.046556 -0.035430 0.247714
vn -0.297474 0.327946 0.896639
v -0.020320 0.023186 0.269710
vn -0.774490 0.048304 0.630740
v -0.058821 0.006732 0.248317
vn -0.629505 0.594822 0.499910
v -0.046786 0.041008 0.242306
vn -0.949450 0.155385 -0.272764
v -0.067818 0.012381 0.183085
# 129 vertices, 0 vertices normals

f 62//62 61//61 19//19
f 61//61 75//75 14//14
f 14//14 69//69 66//66
f 19//19 66//66 13//13
f 13//13 66//66 67//67
f 14//14 66//66 61//61
f 61//61 66//66 19//19
f 39//39 34//34 1//1
f 34//34 28//28 16//16
f 1//1 34//34 16//16
f 13//13 1//1 19//19
f 39//39 1//1 13//13
f 19//19 1//1 62//62
f 1//1 25//25 62//62
f 8//8 27//27 26//26
f 1//1 26//26 25//25
f 16//16 26//26 1//1
f 16//16 8//8 26//26
f 62//62 25//25 63//63
f 25//25 26//26 56//56
f 56//56 27//27 57//57
f 56//56 57//57 59//59
f 26//26 27//27 56//56
f 58//58 59//59 71//71
f 59//59 50//50 71//71
f 25//25 58//58 63//63
f 56//56 58//58 25//25
f 56//56 59//59 58//58
f 58//58 71//71 63//63
f 63//63 15//15 61//61
f 63//63 61//61 62//62
f 71//71 73//73 76//76
f 71//71 50//50 73//73
f 75//75 72//72 14//14
f 71//71 76//76 15//15
f 71//71 15//15 63//63
f 76//76 72//72 75//75
f 15//15 75//75 61//61
f 76//76 75//75 15//15
f 34//34 9//9 28//28
f 13//13 67//67 40//40
f 13//13 40//40 39//39
f 39//39 40//40 9//9
f 39//39 9//9 34//34
f 40//40 42//42 41//41
f 40//40 41//41 9//9
f 66//66 69//69 67//67
f 36//36 69//69 68//68
f 14//14 68//68 69//69
f 67//67 36//36 20//20
f 36//36 68//68 64//64
f 36//36 67//67 69//69
f 14//14 72//72 68//68
f 72//72 65//65 68//68
f 72//72 76//76 74//74
f 76//76 73//73 74//74
f 70//70 50//50 60//60
f 73//73 50//50 70//70
f 73//73 70//70 74//74
f 65//65 49//49 48//48
f 74//74 49//49 65//65
f 74//74 65//65 72//72
f 60//60 52//52 55//55
f 50//50 59//59 60//60
f 57//57 33//33 6//6
f 57//57 6//6 53//53
f 54//54 53//53 30//30
f 53//53 54//54 52//52
f 57//57 60//60 59//59
f 57//57 53//53 52//52
f 57//57 52//52 60//60
f 27//27 8//8 33//33
f 16//16 28//28 8//8
f 7//7 44//44 43//43
f 7//7 43//43 32//32
f 28//28 44//44 8//8
f 44//44 7//7 8//8
f 33//33 7//7 6//6
f 8//8 7//7 33//33
f 3//3 45//45 11//11
f 45//45 37//37 11//11
f 11//11 17//17 3//3
f 47//47 41//41 38//38
f 47//47 38//38 37//37
f 17//17 11//11 10//10
f 38//38 10//10 11//11
f 37//37 38//38 11//11
f 17//17 23//23 3//3
f 10//10 64//64 18//18
f 10//10 18//18 17//17
f 4//4 18//18 48//48
f 4//4 48//48 24//24
f 4//4 23//23 17//17
f 4//4 24//24 23//23
f 18//18 4//4 17//17
f 3//3 23//23 22//22
f 23//23 51//51 22//22
f 24//24 48//48 21//21
f 51//51 54//54 30//30
f 24//24 51//51 23//23
f 24//24 21//21 51//51
f 51//51 30//30 22//22
f 22//22 35//35 3//3
f 31//31 32//32 29//29
f 22//22 31//31 35//35
f 31//31 29//29 35//35
f 30//30 31//31 22//22
f 35//35 45//45 3//3
f 29//29 32//32 43//43
f 43//43 2//2 29//29
f 2//2 47//47 37//37
f 35//35 29//29 45//45
f 29//29 2//2 45//45
f 45//45 2//2 37//37
f 64//64 10//10 36//36
f 38//38 20//20 10//10
f 10//10 20//20 36//36
f 38//38 41//41 20//20
f 42//42 40//40 67//67
f 41//41 42//42 20//20
f 42//42 67//67 20//20
f 48//48 12//12 65//65
f 18//18 12//12 48//48
f 12//12 68//68 65//65
f 64//64 12//12 18//18
f 64//64 68//68 12//12
f 51//51 21//21 55//55
f 51//51 55//55 54//54
f 55//55 52//52 54//54
f 21//21 49//49 55//55
f 48//48 49//49 21//21
f 70//70 49//49 74//74
f 55//55 70//70 60//60
f 49//49 70//70 55//55
f 32//32 31//31 5//5
f 32//32 6//6 7//7
f 32//32 5//5 6//6
f 31//31 30//30 5//5
f 5//5 30//30 53//53
f 5//5 53//53 6//6
f 33//33 57//57 27//27
f 47//47 46//46 41//41
f 46//46 9//9 41//41
f 47//47 2//2 46//46
f 44//44 28//28 9//9
f 2//2 43//43 46//46
f 43//43 44//44 46//46
f 46//46 44//44 9//9
f 111//111 128//128 78//78
f 78//78 128//128 84//84
f 128//128 126//126 84//84
f 78//78 84//84 103//103
f 126//126 105//105 84//84
f 105//105 103//103 84//84
f 103//103 97//97 91//91
f 103//103 91//91 78//78
f 78//78 89//89 111//111
f 91//91 89//89 78//78
f 91//91 98//98 92//92
f 91//91 92//92 90//90
f 89//89 90//90 116//116
f 91//91 90//90 89//89
f 111//111 89//89 119//119
f 116//116 118//118 119//119
f 119//119 115//115 129//129
f 116//116 119//119 89//89
f 118//118 115//115 119//119
f 111//111 82//82 128//128
f 111//111 119//119 129//129
f 128//128 82//82 127//127
f 129//129 82//82 111//111
f 129//129 120//120 82//82
f 98//98 91//91 97//97
f 103//103 105//105 97//97
f 105//105 106//106 104//104
f 110//110 104//104 102//102
f 104//104 106//106 102//102
f 105//105 104//104 97//97
f 105//105 126//126 107//107
f 128//128 127//127 126//126
f 127//127 125//125 124//124
f 124//124 123//123 107//107
f 127//127 124//124 126//126
f 124//124 107//107 126//126
f 82//82 120//120 127//127
f 129//129 115//115 113//113
f 129//129 113//113 120//120
f 120//120 121//121 77//77
f 121//121 112//112 77//77
f 113//113 121//121 120//120
f 116//116 117//117 118//118
f 118//118 85//85 114//114
f 117//117 85//85 118//118
f 90//90 95//95 116//116
f 94//94 98//98 110//110
f 92//92 98//98 94//94
f 94//94 108//108 96//96
f 90//90 92//92 94//94
f 94//94 95//95 90//90
f 87//87 80//80 99//99
f 87//87 99//99 86//86
f 99//99 100//100 86//86
f 102//102 106//106 99//99
f 100//100 101//101 123//123
f 99//99 106//106 101//101
f 101//101 100//100 99//99
f 86//86 100//100 83//83
f 100//100 123//123 122//122
f 83//83 122//122 77//77
f 100//100 122//122 83//83
f 79//79 77//77 112//112
f 83//83 77//77 79//79
f 86//86 83//83 79//79
f 81//81 85//85 88//88
f 86//86 79//79 87//87
f 79//79 81//81 88//88
f 81//81 79//79 112//112
f 79//79 88//88 87//87
f 93//93 85//85 117//117
f 85//85 93//93 88//88
f 88//88 93//93 87//87
f 93//93 96//96 80//80
f 93//93 80//80 87//87
f 80//80 96//96 109//109
f 109//109 108//108 110//110
f 96//96 108//108 109//109
f 99//99 80//80 102//102
f 80//80 109//109 102//102
f 101//101 106//106 107//107
f 123//123 101//101 107//107
f 107//107 106//106 105//105
f 77//77 125//125 120//120
f 123//123 124//124 125//125
f 122//122 123//123 125//125
f 120//120 125//125 127//127
f 122//122 125//125 77//77
f 81//81 114//114 85//85
f 112//112 121//121 113//113
f 114//114 115//115 118//118
f 114//114 113//113 115//115
f 81//81 112//112 113//113
f 113//113 114//114 81//81
f 117//117 116//116 95//95
f 93//93 117//117 96//96
f 95//95 94//94 96//96
f 117//117 95//95 96//96
f 104//104 110//110 97//97
f 109//109 110//110 102//102
f 108//108 94//94 110//110
f 110//110 98//98 97//97
# 250 faces, 0 coords texture

# End of File
