####
#
# OBJ File Generated by Meshlab
#
####
# Object right_shin.obj
#
# Vertices: 127
# Faces: 250
#
####
vn 0.640568 -0.107840 -0.760291
v 0.031350 -0.004899 -0.395184
vn 0.987098 0.094264 -0.129429
v 0.049696 0.004889 -0.359945
vn 0.995163 -0.066895 -0.071937
v 0.049907 -0.002886 -0.356923
vn 0.997873 0.002509 0.065143
v 0.049936 0.000000 -0.042468
vn 0.984858 0.130150 0.114521
v 0.049695 0.004895 -0.042468
vn 0.875415 0.189407 0.444717
v 0.042553 0.009014 -0.018380
vn 0.957209 -0.112567 0.266609
v 0.047443 -0.004475 -0.027341
vn 0.836968 0.513707 -0.188654
v 0.040523 0.029268 -0.365355
vn 0.956891 0.249720 -0.148323
v 0.048596 0.011728 -0.356949
vn 0.967255 0.232452 0.101901
v 0.048384 0.012573 -0.042745
vn 0.843858 0.219904 -0.489434
v 0.042554 0.006656 -0.381925
vn 0.923071 0.379093 -0.065031
v 0.045377 0.020976 -0.358435
vn 0.908063 0.382913 0.169703
v 0.046137 0.019105 -0.038238
vn 0.733813 0.549585 0.399342
v 0.034610 0.027369 -0.018910
vn 0.840121 0.534149 0.094246
v 0.042651 0.026075 -0.043331
vn 0.768428 0.632645 0.096327
v 0.038601 0.031679 -0.042468
vn 0.462104 0.277141 0.842409
v 0.023657 0.015217 -0.002209
vn 0.658525 0.745982 -0.099280
v 0.033890 0.036750 -0.357684
vn 0.653861 0.746098 0.125710
v 0.033248 0.037331 -0.041817
vn 0.545503 0.696867 -0.465620
v 0.030178 0.032205 -0.381868
vn 0.586389 0.809483 -0.029764
v 0.027743 0.041520 -0.357532
vn 0.564626 0.819927 0.094425
v 0.027743 0.041520 -0.042468
vn 0.473136 0.869369 -0.142620
v 0.023537 0.044040 -0.362362
vn 0.326009 0.940991 -0.090857
v 0.017251 0.046921 -0.356841
vn 0.294845 0.951588 0.086875
v 0.016428 0.047215 -0.042943
vn 0.432380 0.892828 0.126117
v 0.023535 0.044042 -0.040055
vn 0.461050 0.764156 0.451109
v 0.022546 0.038523 -0.019567
vn 0.049767 0.583612 0.810506
v 0.002231 0.030806 -0.003878
vn 0.369559 0.366900 -0.853704
v 0.017728 0.022868 -0.398027
vn 0.064593 0.947909 -0.311923
v 0.000424 0.048276 -0.370896
vn 0.207518 0.975273 -0.076020
v 0.009742 0.048976 -0.357532
vn 0.147295 0.987401 0.057826
v 0.006904 0.049511 -0.041995
vn 0.055088 0.997209 -0.050396
v 0.002886 0.049907 -0.356859
vn -0.010137 0.998961 0.044429
v 0.000000 0.049936 -0.042468
vn 0.010770 0.951703 0.306833
v 0.001395 0.048396 -0.028644
vn -0.103938 0.992233 -0.068350
v -0.006868 0.049516 -0.360072
vn -0.179537 0.980664 0.077876
v -0.007752 0.049386 -0.041445
vn -0.187052 0.399230 -0.897568
v -0.008685 0.017810 -0.401819
vn -0.404452 0.698171 0.590741
v -0.020390 0.035433 -0.014284
vn 0.017154 0.745530 -0.666251
v 0.002301 0.038454 -0.388997
vn -0.318663 0.935617 -0.151906
v -0.016471 0.047199 -0.362780
vn -0.329976 0.938561 0.101093
v -0.017249 0.046921 -0.042764
vn -0.506108 0.858366 -0.084036
v -0.025330 0.043098 -0.357015
vn -0.589937 0.700105 -0.402277
v -0.030139 0.034374 -0.378759
vn -0.491130 0.856105 0.160858
v -0.025930 0.042738 -0.035069
vn -0.623700 0.777680 -0.078816
v -0.031679 0.038601 -0.357532
vn -0.667759 0.744127 0.019325
v -0.033892 0.036747 -0.043172
vn -0.734377 0.673786 -0.081871
v -0.036748 0.033892 -0.356873
vn -0.761197 0.614056 0.208602
v -0.038603 0.031652 -0.032627
vn -0.819681 0.563484 -0.103005
v -0.041520 0.027743 -0.357532
vn -0.874929 0.482827 0.037123
v -0.043112 0.025305 -0.040222
vn -0.618777 0.332017 -0.711955
v -0.032203 0.021203 -0.389623
vn -0.890050 0.436818 -0.130390
v -0.045003 0.021767 -0.357495
vn -0.286334 0.348619 0.892456
v -0.015030 0.020535 -0.000922
vn -0.920832 0.389757 0.012585
v -0.046135 0.019110 -0.042468
vn -0.694670 0.269185 0.667063
v -0.035399 0.012311 -0.010007
vn -0.951778 0.302206 -0.052823
v -0.047786 0.014496 -0.357532
vn -0.940741 0.295437 0.166505
v -0.047710 0.014723 -0.033852
vn -0.363722 -0.145868 -0.920016
v -0.015561 -0.007443 -0.403478
vn -0.754564 -0.064919 -0.653007
v -0.038871 -0.001125 -0.388045
vn -0.985400 0.165912 -0.038197
v -0.049384 0.007763 -0.357174
vn -0.992848 0.087245 0.081492
v -0.049511 0.006905 -0.042610
vn -0.946267 0.171676 -0.274053
v -0.048184 0.007677 -0.369675
vn -0.998314 0.017131 -0.055456
v -0.049936 0.000000 -0.357532
vn -0.996385 -0.014790 0.083659
v -0.049936 0.000000 -0.042468
vn -0.898492 -0.330384 -0.289065
v -0.045449 -0.017187 -0.369896
vn -0.988049 -0.123962 -0.091607
v -0.049511 -0.006905 -0.357520
vn -0.982140 -0.165061 0.090307
v -0.049384 -0.007763 -0.042365
vn -0.938661 -0.060029 0.339575
v -0.045767 -0.001719 -0.022873
vn -0.414610 -0.044489 0.908911
v -0.019986 -0.001099 0.001447
vn -0.961753 -0.269677 -0.048006
v -0.047786 -0.014496 -0.357532
vn -0.955394 -0.278271 0.098931
v -0.047786 -0.014496 -0.042468
vn -0.925211 -0.376860 -0.044290
v -0.046135 -0.019110 -0.357532
vn -0.914412 -0.402779 0.040245
v -0.046135 -0.019110 -0.042468
vn -0.702429 -0.199937 0.683095
v -0.035139 -0.011170 -0.009613
vn 0.092000 -0.155587 -0.983529
v 0.002725 -0.007499 -0.406626
vn -0.855764 -0.508942 -0.092984
v -0.043097 -0.025331 -0.357833
vn -0.847432 -0.529382 0.040179
v -0.042652 -0.026075 -0.042961
vn -0.831153 -0.478267 0.283629
v -0.043403 -0.022376 -0.030397
vn -0.779454 -0.622603 -0.069415
v -0.038601 -0.031679 -0.357532
vn -0.763456 -0.642081 0.069766
v -0.038601 -0.031679 -0.042468
vn -0.456091 -0.497006 0.738218
v -0.026082 -0.025344 -0.009109
vn -0.684563 -0.727375 -0.047949
v -0.033891 -0.036749 -0.357245
vn -0.662036 -0.742951 0.098653
v -0.033248 -0.037331 -0.042092
vn -0.641965 -0.716954 -0.271767
v -0.030882 -0.037154 -0.371598
vn -0.564880 -0.823499 -0.052530
v -0.027743 -0.041520 -0.357532
vn -0.575752 -0.467832 -0.670554
v -0.027340 -0.025209 -0.390192
vn -0.186511 -0.802234 -0.567128
v -0.008955 -0.041687 -0.384593
vn -0.511538 -0.857672 0.052228
v -0.025330 -0.043098 -0.042291
vn -0.041890 -0.093974 0.994693
v 0.000505 -0.007411 0.006297
vn -0.419275 -0.900135 -0.118175
v -0.021761 -0.045006 -0.357398
vn -0.380928 -0.922494 0.062442
v -0.019110 -0.046135 -0.042468
vn -0.304968 -0.946248 -0.107745
v -0.014496 -0.047786 -0.357532
vn -0.268747 -0.959103 0.088858
v -0.014496 -0.047786 -0.042468
vn -0.131620 -0.979038 -0.155437
v -0.007763 -0.049384 -0.357877
vn -0.133056 -0.981012 0.141108
v -0.006905 -0.049511 -0.042517
vn -0.445422 -0.842645 0.302570
v -0.024672 -0.041110 -0.026721
vn 0.033230 -0.995139 -0.092702
v 0.002013 -0.049950 -0.357671
vn 0.000345 -0.990830 0.135111
v -0.000000 -0.049936 -0.042468
vn 0.148415 -0.982540 0.112197
v 0.007763 -0.049384 -0.042007
vn 0.047698 -0.840265 0.540074
v 0.002279 -0.042260 -0.014794
vn 0.348280 -0.318380 0.881666
v 0.015320 -0.014196 0.002703
vn 0.229930 -0.971822 -0.051897
v 0.011731 -0.048595 -0.356729
vn 0.278352 -0.951551 0.130654
v 0.014496 -0.047786 -0.042468
vn 0.437252 -0.853223 0.284290
v 0.022354 -0.041071 -0.025274
vn 0.386461 -0.871631 -0.301509
v 0.019171 -0.044702 -0.372538
vn 0.367236 -0.929476 -0.034816
v 0.019110 -0.046135 -0.357532
vn 0.404569 -0.911306 0.076455
v 0.019110 -0.046135 -0.042468
vn 0.401136 -0.552420 -0.730700
v 0.020651 -0.028993 -0.393075
vn 0.501297 -0.863893 -0.048886
v 0.025330 -0.043098 -0.357932
vn 0.540171 -0.838417 0.072606
v 0.026075 -0.042651 -0.043331
vn 0.651046 -0.751948 -0.103505
v 0.033248 -0.037331 -0.357692
vn 0.678896 -0.725485 0.113010
v 0.033892 -0.036748 -0.042900
vn 0.619107 -0.628023 0.471479
v 0.029644 -0.032457 -0.018591
vn 0.767698 -0.623946 -0.146048
v 0.039893 -0.030127 -0.357324
vn 0.794372 -0.598696 0.102644
v 0.040412 -0.029427 -0.042679
vn 0.868325 -0.489263 -0.081447
v 0.044039 -0.023540 -0.357532
vn 0.920402 -0.376082 -0.106880
v 0.046135 -0.019110 -0.357532
vn 0.931829 -0.359577 0.048980
v 0.046135 -0.019110 -0.042468
vn 0.881550 -0.437505 0.177370
v 0.044042 -0.023535 -0.040055
vn 0.804087 -0.458763 -0.378129
v 0.041903 -0.019842 -0.375216
vn 0.950608 -0.298539 -0.084970
v 0.047786 -0.014496 -0.357532
vn 0.954201 -0.281694 0.100744
v 0.047786 -0.014496 -0.042468
vn 0.935966 -0.161356 -0.312940
v 0.046554 -0.006566 -0.373624
vn 0.978697 -0.192047 -0.072596
v 0.048976 -0.009742 -0.357532
vn 0.988013 -0.140187 0.064640
v 0.049511 -0.006904 -0.041995
vn 0.755863 -0.210225 0.620062
v 0.038653 -0.010787 -0.012183
# 127 vertices, 0 vertices normals

f 76//76 29//29 1//1
f 124//124 11//11 2//2
f 3//3 2//2 4//4
f 4//4 2//2 5//5
f 4//4 5//5 7//7
f 7//7 5//5 6//6
f 127//127 7//7 6//6
f 2//2 11//11 9//9
f 2//2 9//9 5//5
f 5//5 9//9 10//10
f 5//5 10//10 6//6
f 6//6 17//17 127//127
f 11//11 8//8 9//9
f 6//6 10//10 13//13
f 1//1 29//29 11//11
f 11//11 20//20 8//8
f 9//9 8//8 12//12
f 9//9 12//12 10//10
f 10//10 12//12 13//13
f 6//6 13//13 14//14
f 102//102 17//17 90//90
f 11//11 29//29 20//20
f 13//13 12//12 15//15
f 6//6 14//14 17//17
f 12//12 8//8 15//15
f 13//13 15//15 14//14
f 15//15 8//8 16//16
f 15//15 16//16 14//14
f 8//8 18//18 16//16
f 16//16 18//18 19//19
f 16//16 19//19 14//14
f 14//14 19//19 27//27
f 20//20 29//29 40//40
f 8//8 20//20 18//18
f 17//17 28//28 90//90
f 20//20 23//23 18//18
f 18//18 23//23 21//21
f 18//18 21//21 19//19
f 19//19 21//21 22//22
f 19//19 22//22 27//27
f 14//14 27//27 17//17
f 17//17 27//27 28//28
f 76//76 38//38 29//29
f 21//21 23//23 22//22
f 22//22 23//23 26//26
f 22//22 26//26 27//27
f 23//23 24//24 26//26
f 26//26 24//24 25//25
f 23//23 20//20 30//30
f 23//23 30//30 24//24
f 26//26 25//25 35//35
f 26//26 35//35 27//27
f 20//20 40//40 30//30
f 24//24 30//30 31//31
f 24//24 31//31 25//25
f 25//25 31//31 32//32
f 25//25 32//32 35//35
f 27//27 35//35 28//28
f 31//31 30//30 33//33
f 31//31 33//33 32//32
f 30//30 36//36 33//33
f 32//32 33//33 34//34
f 32//32 34//34 35//35
f 33//33 36//36 34//34
f 34//34 36//36 37//37
f 34//34 37//37 35//35
f 29//29 38//38 40//40
f 30//30 41//41 36//36
f 36//36 41//41 37//37
f 37//37 41//41 42//42
f 37//37 42//42 35//35
f 35//35 42//42 45//45
f 35//35 39//39 28//28
f 40//40 44//44 30//30
f 30//30 44//44 41//41
f 35//35 45//45 39//39
f 28//28 54//54 90//90
f 40//40 38//38 44//44
f 41//41 43//43 42//42
f 42//42 43//43 45//45
f 39//39 54//54 28//28
f 41//41 44//44 43//43
f 43//43 44//44 46//46
f 43//43 46//46 45//45
f 45//45 46//46 47//47
f 45//45 49//49 39//39
f 38//38 52//52 44//44
f 46//46 44//44 48//48
f 46//46 48//48 47//47
f 45//45 47//47 49//49
f 47//47 48//48 49//49
f 38//38 59//59 52//52
f 48//48 44//44 50//50
f 48//48 50//50 49//49
f 49//49 50//50 51//51
f 39//39 49//49 56//56
f 39//39 56//56 54//54
f 44//44 52//52 63//63
f 50//50 44//44 53//53
f 50//50 53//53 51//51
f 49//49 51//51 58//58
f 49//49 58//58 56//56
f 54//54 56//56 70//70
f 51//51 53//53 55//55
f 44//44 63//63 53//53
f 53//53 63//63 57//57
f 53//53 57//57 55//55
f 55//55 57//57 58//58
f 55//55 58//58 51//51
f 52//52 60//60 63//63
f 57//57 63//63 61//61
f 57//57 61//61 58//58
f 58//58 61//61 62//62
f 56//56 58//58 69//69
f 54//54 70//70 90//90
f 38//38 76//76 59//59
f 52//52 59//59 60//60
f 58//58 62//62 69//69
f 61//61 63//63 64//64
f 61//61 64//64 62//62
f 62//62 64//64 65//65
f 62//62 65//65 69//69
f 56//56 69//69 75//75
f 63//63 60//60 66//66
f 64//64 63//63 67//67
f 64//64 67//67 65//65
f 65//65 67//67 68//68
f 65//65 68//68 69//69
f 56//56 75//75 70//70
f 63//63 66//66 67//67
f 67//67 66//66 71//71
f 67//67 71//71 68//68
f 68//68 71//71 72//72
f 68//68 72//72 69//69
f 69//69 72//72 79//79
f 69//69 79//79 75//75
f 60//60 59//59 87//87
f 71//71 66//66 73//73
f 71//71 73//73 72//72
f 72//72 73//73 74//74
f 72//72 74//74 79//79
f 60//60 87//87 66//66
f 73//73 66//66 77//77
f 73//73 77//77 74//74
f 74//74 77//77 78//78
f 74//74 78//78 79//79
f 75//75 79//79 82//82
f 70//70 75//75 82//82
f 70//70 82//82 90//90
f 87//87 85//85 66//66
f 66//66 85//85 77//77
f 77//77 85//85 80//80
f 77//77 80//80 78//78
f 78//78 80//80 81//81
f 78//78 81//81 79//79
f 79//79 97//97 82//82
f 80//80 85//85 83//83
f 80//80 83//83 81//81
f 81//81 83//83 84//84
f 81//81 84//84 79//79
f 79//79 84//84 97//97
f 83//83 85//85 86//86
f 83//83 86//86 84//84
f 84//84 86//86 89//89
f 84//84 89//89 97//97
f 85//85 87//87 88//88
f 86//86 85//85 91//91
f 86//86 91//91 89//89
f 87//87 59//59 88//88
f 85//85 88//88 91//91
f 89//89 91//91 92//92
f 89//89 92//92 97//97
f 82//82 97//97 101//101
f 91//91 88//88 93//93
f 91//91 93//93 92//92
f 92//92 93//93 94//94
f 92//92 94//94 97//97
f 59//59 76//76 88//88
f 93//93 88//88 95//95
f 93//93 95//95 94//94
f 94//94 95//95 96//96
f 94//94 96//96 97//97
f 82//82 101//101 90//90
f 88//88 76//76 109//109
f 97//97 96//96 101//101
f 88//88 106//106 95//95
f 95//95 106//106 98//98
f 95//95 98//98 96//96
f 96//96 98//98 99//99
f 96//96 99//99 101//101
f 99//99 98//98 100//100
f 99//99 100//100 101//101
f 98//98 106//106 103//103
f 98//98 103//103 100//100
f 90//90 101//101 102//102
f 88//88 109//109 106//106
f 100//100 103//103 104//104
f 100//100 104//104 101//101
f 101//101 104//104 105//105
f 103//103 106//106 107//107
f 103//103 107//107 104//104
f 104//104 107//107 108//108
f 104//104 108//108 105//105
f 107//107 106//106 110//110
f 107//107 110//110 108//108
f 108//108 110//110 111//111
f 108//108 111//111 105//105
f 105//105 114//114 101//101
f 101//101 114//114 102//102
f 110//110 106//106 112//112
f 110//110 112//112 111//111
f 111//111 112//112 113//113
f 111//111 113//113 105//105
f 105//105 113//113 114//114
f 106//106 109//109 121//121
f 112//112 106//106 115//115
f 112//112 115//115 113//113
f 113//113 115//115 116//116
f 113//113 116//116 114//114
f 109//109 76//76 1//1
f 106//106 121//121 115//115
f 114//114 127//127 102//102
f 115//115 121//121 117//117
f 115//115 117//117 116//116
f 116//116 117//117 120//120
f 116//116 120//120 114//114
f 114//114 120//120 127//127
f 117//117 121//121 118//118
f 117//117 118//118 120//120
f 120//120 118//118 119//119
f 109//109 1//1 121//121
f 121//121 124//124 118//118
f 118//118 124//124 122//122
f 118//118 122//122 119//119
f 119//119 122//122 123//123
f 119//119 123//123 120//120
f 120//120 123//123 7//7
f 120//120 7//7 127//127
f 1//1 124//124 121//121
f 122//122 124//124 125//125
f 122//122 125//125 123//123
f 123//123 125//125 126//126
f 123//123 126//126 7//7
f 125//125 124//124 3//3
f 125//125 3//3 126//126
f 1//1 11//11 124//124
f 124//124 2//2 3//3
f 126//126 3//3 4//4
f 126//126 4//4 7//7
f 102//102 127//127 17//17
# 250 faces, 0 coords texture

# End of File
