####
#
# OBJ File Generated by Meshlab
#
####
# Object right_upper_arm.obj
#
# Vertices: 127
# Faces: 250
#
####
vn 0.998369 -0.001162 0.057083
v 0.044942 0.000000 -0.047721
vn 0.911330 0.230903 -0.340824
v 0.039269 0.009331 -0.250714
vn 0.988420 0.080686 -0.128516
v 0.044726 0.004405 -0.233790
vn 0.991398 0.107393 0.074811
v 0.044726 0.004405 -0.047721
vn 0.655045 -0.135822 0.743282
v 0.029177 -0.008060 -0.015107
vn 0.374224 -0.031590 -0.926800
v 0.017075 -0.001576 -0.273431
vn 0.701003 0.225022 -0.676727
v 0.031930 0.013898 -0.260987
vn 0.973328 0.208370 -0.095991
v 0.044079 0.008768 -0.232279
vn 0.971425 0.208039 0.114252
v 0.044079 0.008768 -0.047721
vn 0.204326 0.010962 0.978842
v 0.012269 -0.000368 -0.006211
vn 0.877807 0.265990 0.398376
v 0.038688 0.012323 -0.029060
vn 0.936048 0.328033 -0.127310
v 0.042492 0.014788 -0.231900
vn 0.930806 0.353428 0.093215
v 0.042228 0.015523 -0.047631
vn 0.887617 0.453808 -0.078701
v 0.039636 0.021186 -0.232279
vn 0.877735 0.470353 0.091377
v 0.039636 0.021186 -0.047721
vn 0.700577 0.647177 -0.300591
v 0.032554 0.029571 -0.244280
vn 0.807864 0.588028 -0.039733
v 0.036367 0.026489 -0.232166
vn 0.757338 0.651283 0.047644
v 0.034493 0.029025 -0.047816
vn 0.522696 0.386471 0.759888
v 0.024696 0.016891 -0.014515
vn 0.676704 0.735262 -0.038226
v 0.030502 0.033074 -0.231828
vn 0.592575 0.801200 0.083269
v 0.026489 0.036368 -0.048182
vn 0.740304 0.603019 0.297185
v 0.035099 0.026308 -0.036903
vn 0.089166 0.644721 0.759200
v 0.007653 0.029236 -0.015054
vn 0.533840 0.843025 -0.065756
v 0.023461 0.038391 -0.231807
vn 0.371419 0.911194 -0.178254
v 0.015551 0.042217 -0.236720
vn 0.361176 0.931130 0.050493
v 0.016729 0.041862 -0.048399
vn -0.017421 0.233855 -0.972116
v -0.002445 0.007615 -0.275360
vn 0.286017 0.592950 -0.752731
v 0.013195 0.029976 -0.262612
vn 0.103831 0.991200 -0.082103
v 0.004990 0.044803 -0.235541
vn 0.148755 0.980836 0.125830
v 0.006235 0.044558 -0.048227
vn 0.404391 0.838989 0.364095
v 0.018011 0.038833 -0.033128
vn -0.095343 0.923523 0.371504
v -0.001740 0.040884 -0.029067
vn 0.041438 0.249034 0.967608
v -0.000360 0.012622 -0.006116
vn 0.102100 0.914812 -0.390762
v 0.004628 0.041506 -0.248647
vn -0.039337 0.995589 0.085177
v -0.002601 0.044916 -0.047815
vn -0.348086 0.903970 -0.248345
v -0.014509 0.042013 -0.239663
vn -0.135667 0.986569 -0.090976
v -0.006217 0.044560 -0.232000
vn -0.203554 0.974504 0.094385
v -0.008768 0.044079 -0.047721
vn -0.310095 0.950303 -0.027671
v -0.014788 0.042492 -0.231799
vn -0.349566 0.930125 0.112565
v -0.015523 0.042229 -0.047492
vn -0.228085 0.677819 -0.698955
v -0.011934 0.031212 -0.262067
vn -0.459927 0.886284 -0.054477
v -0.021186 0.039636 -0.232279
vn -0.514847 0.855825 0.049972
v -0.023460 0.038391 -0.048000
vn -0.581292 0.806527 -0.107772
v -0.026490 0.036367 -0.232128
vn -0.633081 0.772224 0.053646
v -0.028511 0.034741 -0.047721
vn -0.433254 0.650064 0.624266
v -0.020420 0.030778 -0.022979
vn -0.669853 0.640232 -0.376031
v -0.030597 0.028302 -0.249590
vn -0.691250 0.718646 -0.075642
v -0.031779 0.031779 -0.232279
vn -0.715470 0.690624 0.105550
v -0.031779 0.031779 -0.047721
vn -0.538353 0.801374 0.260721
v -0.024226 0.036268 -0.036609
vn -0.286716 0.382556 0.878319
v -0.013487 0.017968 -0.009911
vn -0.458064 0.202633 -0.865516
v -0.019473 0.008464 -0.271448
vn -0.768165 0.635669 -0.076471
v -0.034741 0.028511 -0.232279
vn -0.785230 0.614060 0.079652
v -0.034741 0.028511 -0.047721
vn -0.849448 0.514908 -0.115356
v -0.038394 0.023456 -0.232134
vn -0.872692 0.485104 0.055523
v -0.038793 0.022790 -0.048214
vn -0.851865 0.418556 0.314860
v -0.038457 0.019491 -0.034416
vn -0.859788 0.251445 -0.444454
v -0.038506 0.012685 -0.251399
vn -0.926717 0.364181 -0.092563
v -0.042228 0.015523 -0.232416
vn -0.943307 0.326091 0.061934
v -0.042492 0.014786 -0.048224
vn -0.971560 0.220367 -0.086659
v -0.044079 0.008768 -0.232279
vn -0.976634 0.192514 0.095519
v -0.044079 0.008768 -0.047721
vn -0.988317 0.015464 -0.151624
v -0.044934 0.000179 -0.238192
vn -0.992326 0.122407 -0.017476
v -0.044726 0.004405 -0.232279
vn -0.985704 0.085765 0.145026
v -0.044726 0.004405 -0.047721
vn -0.284727 -0.021805 0.958360
v -0.014223 -0.007158 -0.007064
vn -0.993586 -0.064003 0.093224
v -0.044916 -0.002601 -0.047627
vn -0.653589 0.170124 0.737481
v -0.030241 0.007904 -0.015840
vn -0.987118 -0.157786 -0.026475
v -0.044560 -0.006217 -0.232000
vn -0.559352 -0.313611 -0.767316
v -0.026880 -0.011628 -0.266195
vn -0.842551 -0.198543 -0.500688
v -0.037069 -0.009850 -0.254763
vn -0.916129 -0.359441 -0.177509
v -0.042384 -0.015091 -0.238882
vn -0.946962 -0.311365 0.079460
v -0.042974 -0.013615 -0.045991
vn -0.907686 -0.171814 0.382865
v -0.040081 -0.008982 -0.028839
vn -0.880610 -0.472621 -0.034008
v -0.039636 -0.021186 -0.232279
vn -0.857973 -0.502909 0.104715
v -0.038394 -0.023456 -0.048179
vn -0.561597 -0.393921 0.727623
v -0.028596 -0.015405 -0.017628
vn -0.807514 -0.583785 -0.084362
v -0.036368 -0.026489 -0.231953
vn -0.692628 -0.639472 -0.333679
v -0.030913 -0.029059 -0.246817
vn -0.773152 -0.633091 0.037843
v -0.034741 -0.028511 -0.047721
vn -0.719534 -0.691066 -0.068544
v -0.031779 -0.031779 -0.232279
vn -0.693679 -0.719503 0.033523
v -0.031779 -0.031779 -0.047721
vn -0.632016 -0.770910 -0.079085
v -0.028511 -0.034741 -0.232279
vn -0.589385 -0.805465 0.062063
v -0.026488 -0.036368 -0.047608
vn -0.686384 -0.678833 0.260890
v -0.032031 -0.030326 -0.037444
vn -0.517166 -0.847643 -0.118494
v -0.023460 -0.038391 -0.232111
vn -0.487635 -0.869630 0.077176
v -0.021186 -0.039636 -0.047721
vn -0.386295 -0.790659 -0.475010
v -0.017315 -0.035815 -0.253149
vn -0.332241 -0.933721 -0.133347
v -0.015523 -0.042228 -0.232780
vn -0.318951 -0.925026 0.206390
v -0.014659 -0.042528 -0.040447
vn -0.380700 -0.760494 0.526038
v -0.017552 -0.033744 -0.024475
vn -0.159976 -0.982662 -0.093720
v -0.006989 -0.044446 -0.231995
vn -0.141468 -0.285071 0.948009
v -0.006126 -0.010524 -0.005517
vn -0.044567 -0.309504 -0.949853
v 0.000091 -0.016379 -0.273773
vn -0.104154 -0.661591 -0.742596
v -0.002352 -0.029726 -0.264555
vn 0.028163 -0.923546 -0.382453
v 0.003241 -0.041743 -0.249122
vn 0.016906 -0.997123 -0.073895
v 0.001821 -0.044955 -0.231723
vn 0.133909 -0.990412 0.033947
v 0.006997 -0.044445 -0.048144
vn -0.021958 -0.989171 0.145116
v -0.003722 -0.044923 -0.042784
vn -0.183284 -0.624306 0.759374
v -0.008675 -0.030854 -0.016676
vn 0.248242 -0.961285 -0.119614
v 0.010435 -0.043760 -0.237717
vn 0.150293 -0.844775 0.513584
v 0.008460 -0.038630 -0.026307
vn 0.388021 -0.613623 -0.687683
v 0.017592 -0.029785 -0.260559
vn 0.394122 -0.916911 -0.062783
v 0.017199 -0.041521 -0.232279
vn 0.324540 -0.935165 0.141919
v 0.013866 -0.042736 -0.041270
vn 0.451162 -0.891834 0.032939
v 0.019600 -0.040498 -0.048115
vn 0.522986 -0.813155 -0.255471
v 0.025243 -0.035874 -0.242822
vn 0.507250 -0.860350 -0.049940
v 0.022791 -0.038793 -0.232717
vn 0.546850 -0.833844 0.075229
v 0.024969 -0.037368 -0.047721
vn 0.271449 -0.475701 0.836674
v 0.010931 -0.022039 -0.011142
vn 0.620184 -0.783204 -0.044312
v 0.028511 -0.034741 -0.232279
vn 0.640857 -0.765354 0.059464
v 0.028511 -0.034741 -0.047721
vn 0.765263 -0.551916 -0.331303
v 0.034475 -0.025139 -0.245964
vn 0.702779 -0.706684 -0.081844
v 0.031779 -0.031779 -0.232279
vn 0.728121 -0.677693 0.102817
v 0.031779 -0.031779 -0.047721
vn 0.582506 -0.765344 0.273743
v 0.026860 -0.033842 -0.036100
vn 0.771958 -0.632124 -0.067087
v 0.034741 -0.028511 -0.232279
vn 0.812901 -0.574037 0.098355
v 0.036368 -0.026488 -0.047584
vn 0.713709 -0.543309 0.442080
v 0.031968 -0.024195 -0.028012
vn 0.854803 -0.514464 -0.068113
v 0.038391 -0.023461 -0.231959
vn 0.664781 -0.285235 -0.690440
v 0.028939 -0.014679 -0.262016
vn 0.917306 -0.380440 0.117541
v 0.041850 -0.016757 -0.048109
vn 0.900760 -0.120036 -0.417401
v 0.040581 -0.007196 -0.249831
vn 0.944601 -0.303560 -0.124821
v 0.042948 -0.013693 -0.236585
vn 0.985345 -0.160768 0.057001
v 0.044560 -0.006218 -0.048115
vn 0.952380 -0.075023 0.295541
v 0.043030 -0.003622 -0.034684
vn 0.993774 -0.065010 -0.090485
v 0.044916 -0.002602 -0.232150
# 127 vertices, 0 vertices normals

f 123//123 2//2 3//3
f 123//123 3//3 127//127
f 127//127 3//3 1//1
f 1//1 3//3 4//4
f 1//1 4//4 126//126
f 126//126 11//11 5//5
f 3//3 2//2 8//8
f 3//3 8//8 4//4
f 4//4 8//8 9//9
f 4//4 9//9 126//126
f 126//126 9//9 11//11
f 8//8 2//2 12//12
f 8//8 12//12 9//9
f 9//9 12//12 13//13
f 9//9 13//13 11//11
f 5//5 11//11 19//19
f 5//5 19//19 10//10
f 2//2 16//16 12//12
f 2//2 7//7 16//16
f 12//12 16//16 14//14
f 12//12 14//14 13//13
f 13//13 14//14 15//15
f 13//13 15//15 11//11
f 11//11 15//15 22//22
f 14//14 16//16 17//17
f 14//14 17//17 15//15
f 15//15 17//17 18//18
f 15//15 18//18 22//22
f 11//11 22//22 19//19
f 10//10 19//19 33//33
f 17//17 16//16 20//20
f 17//17 20//20 18//18
f 6//6 94//94 27//27
f 6//6 28//28 7//7
f 7//7 28//28 16//16
f 18//18 20//20 21//21
f 18//18 21//21 22//22
f 22//22 21//21 31//31
f 22//22 31//31 19//19
f 6//6 27//27 28//28
f 20//20 16//16 24//24
f 20//20 24//24 21//21
f 19//19 31//31 23//23
f 16//16 25//25 24//24
f 21//21 24//24 26//26
f 21//21 26//26 31//31
f 19//19 23//23 33//33
f 28//28 34//34 16//16
f 16//16 34//34 25//25
f 24//24 25//25 26//26
f 25//25 34//34 29//29
f 25//25 29//29 26//26
f 26//26 29//29 30//30
f 26//26 30//30 31//31
f 10//10 33//33 66//66
f 31//31 30//30 32//32
f 31//31 32//32 23//23
f 28//28 41//41 34//34
f 30//30 29//29 35//35
f 30//30 35//35 32//32
f 28//28 27//27 41//41
f 29//29 34//34 37//37
f 29//29 37//37 35//35
f 34//34 36//36 37//37
f 35//35 37//37 38//38
f 35//35 38//38 32//32
f 32//32 46//46 23//23
f 34//34 41//41 36//36
f 37//37 36//36 39//39
f 37//37 39//39 38//38
f 38//38 39//39 40//40
f 38//38 40//40 32//32
f 32//32 40//40 50//50
f 23//23 46//46 51//51
f 33//33 23//23 51//51
f 32//32 50//50 46//46
f 41//41 47//47 36//36
f 39//39 36//36 42//42
f 39//39 42//42 40//40
f 40//40 42//42 43//43
f 40//40 43//43 50//50
f 27//27 52//52 41//41
f 42//42 36//36 44//44
f 42//42 44//44 43//43
f 36//36 47//47 44//44
f 43//43 44//44 45//45
f 43//43 45//45 50//50
f 41//41 52//52 47//47
f 44//44 47//47 48//48
f 44//44 48//48 45//45
f 45//45 48//48 49//49
f 45//45 49//49 50//50
f 50//50 49//49 57//57
f 48//48 47//47 53//53
f 48//48 53//53 49//49
f 49//49 53//53 54//54
f 49//49 54//54 57//57
f 50//50 57//57 46//46
f 46//46 68//68 51//51
f 53//53 47//47 55//55
f 53//53 55//55 54//54
f 54//54 55//55 56//56
f 54//54 56//56 57//57
f 46//46 57//57 68//68
f 47//47 58//58 55//55
f 47//47 52//52 58//58
f 55//55 58//58 59//59
f 55//55 59//59 56//56
f 56//56 59//59 60//60
f 56//56 60//60 57//57
f 33//33 51//51 66//66
f 59//59 58//58 61//61
f 59//59 61//61 60//60
f 60//60 61//61 62//62
f 60//60 62//62 57//57
f 51//51 68//68 66//66
f 52//52 70//70 58//58
f 58//58 63//63 61//61
f 61//61 63//63 64//64
f 61//61 64//64 62//62
f 62//62 64//64 65//65
f 62//62 65//65 57//57
f 57//57 65//65 74//74
f 57//57 74//74 68//68
f 58//58 70//70 71//71
f 58//58 71//71 63//63
f 64//64 63//63 65//65
f 65//65 63//63 67//67
f 65//65 67//67 74//74
f 63//63 69//69 67//67
f 71//71 72//72 63//63
f 63//63 72//72 69//69
f 67//67 69//69 73//73
f 67//67 73//73 74//74
f 69//69 72//72 73//73
f 68//68 74//74 77//77
f 77//77 66//66 68//68
f 71//71 79//79 72//72
f 72//72 75//75 73//73
f 73//73 75//75 76//76
f 73//73 76//76 74//74
f 52//52 94//94 70//70
f 75//75 72//72 78//78
f 75//75 78//78 76//76
f 74//74 76//76 85//85
f 66//66 77//77 93//93
f 52//52 27//27 94//94
f 71//71 70//70 79//79
f 72//72 79//79 78//78
f 76//76 78//78 80//80
f 76//76 80//80 85//85
f 74//74 85//85 77//77
f 78//78 79//79 81//81
f 78//78 81//81 80//80
f 80//80 81//81 82//82
f 80//80 82//82 85//85
f 70//70 88//88 79//79
f 81//81 79//79 83//83
f 81//81 83//83 82//82
f 82//82 83//83 84//84
f 82//82 84//84 85//85
f 85//85 91//91 77//77
f 77//77 91//91 100//100
f 77//77 100//100 93//93
f 83//83 79//79 86//86
f 83//83 86//86 84//84
f 70//70 94//94 95//95
f 70//70 95//95 88//88
f 79//79 88//88 86//86
f 84//84 86//86 87//87
f 84//84 87//87 85//85
f 85//85 87//87 90//90
f 85//85 90//90 91//91
f 86//86 88//88 89//89
f 86//86 89//89 87//87
f 87//87 89//89 90//90
f 88//88 96//96 89//89
f 89//89 96//96 92//92
f 89//89 92//92 90//90
f 90//90 92//92 99//99
f 90//90 99//99 102//102
f 90//90 102//102 91//91
f 91//91 102//102 100//100
f 100//100 110//110 93//93
f 88//88 95//95 96//96
f 92//92 96//96 97//97
f 92//92 97//97 99//99
f 96//96 101//101 97//97
f 99//99 97//97 98//98
f 96//96 95//95 103//103
f 97//97 101//101 98//98
f 99//99 98//98 105//105
f 99//99 105//105 102//102
f 94//94 103//103 95//95
f 98//98 101//101 105//105
f 100//100 102//102 110//110
f 101//101 96//96 107//107
f 101//101 107//107 104//104
f 101//101 104//104 105//105
f 105//105 104//104 106//106
f 96//96 103//103 107//107
f 104//104 107//107 108//108
f 104//104 108//108 106//106
f 94//94 6//6 103//103
f 106//106 108//108 109//109
f 106//106 109//109 105//105
f 105//105 109//109 116//116
f 105//105 116//116 102//102
f 108//108 107//107 111//111
f 108//108 111//111 109//109
f 109//109 111//111 112//112
f 109//109 112//112 116//116
f 102//102 116//116 119//119
f 102//102 119//119 110//110
f 93//93 110//110 10//10
f 107//107 103//103 113//113
f 111//111 107//107 114//114
f 111//111 114//114 112//112
f 112//112 114//114 115//115
f 112//112 115//115 116//116
f 116//116 115//115 119//119
f 103//103 6//6 121//121
f 103//103 121//121 113//113
f 107//107 113//113 114//114
f 114//114 113//113 117//117
f 114//114 117//117 115//115
f 115//115 117//117 118//118
f 115//115 118//118 119//119
f 110//110 119//119 5//5
f 117//117 113//113 120//120
f 117//117 120//120 118//118
f 113//113 124//124 120//120
f 118//118 120//120 122//122
f 118//118 122//122 119//119
f 110//110 5//5 10//10
f 113//113 121//121 123//123
f 113//113 123//123 124//124
f 120//120 124//124 122//122
f 119//119 122//122 126//126
f 119//119 126//126 5//5
f 122//122 124//124 125//125
f 122//122 125//125 126//126
f 93//93 10//10 66//66
f 121//121 6//6 7//7
f 124//124 123//123 127//127
f 124//124 127//127 125//125
f 121//121 7//7 123//123
f 123//123 7//7 2//2
f 125//125 127//127 1//1
f 125//125 1//1 126//126
# 250 faces, 0 coords texture

# End of File
