####
#
# OBJ File Generated by Meshlab
#
####
# Object body_torso.obj
#
# Vertices: 131
# Faces: 250
#
####
vn -0.615107 -0.760680 0.207386
v -0.069867 -0.082458 0.153741
vn 0.551670 0.535904 -0.639114
v 0.063831 0.062573 0.051184
vn 0.132387 -0.362644 0.922477
v 0.020009 -0.038592 0.223075
vn 0.690939 -0.012568 0.722803
v 0.077997 -0.003282 0.199428
vn -0.745885 -0.377862 -0.548521
v -0.083672 -0.041085 0.058495
vn -0.198739 -0.907203 0.370790
v -0.018296 -0.104559 0.155295
vn -0.443954 0.896049 0.001145
v -0.052246 0.098019 0.119985
vn -0.193094 -0.636030 -0.747115
v -0.018488 -0.072289 0.037245
vn 0.610010 -0.766333 -0.201547
v 0.065270 -0.087651 0.097302
vn 0.683426 0.641053 0.349255
v 0.080005 0.071330 0.152521
vn 0.854138 -0.513477 0.082404
v 0.095111 -0.056807 0.127613
vn 0.974223 0.187238 -0.125824
v 0.108151 0.021941 0.105001
vn -0.509327 -0.837815 -0.196601
v -0.060530 -0.092959 0.101791
vn -0.422444 -0.405098 0.810825
v -0.045934 -0.040771 0.213506
vn -0.609938 -0.071691 0.789200
v -0.067165 -0.008074 0.210240
vn -0.169646 -0.985203 -0.024406
v -0.022021 -0.110430 0.116060
vn 0.130392 -0.672193 0.728803
v 0.015015 -0.071849 0.202885
vn 0.080338 -0.867685 0.490579
v 0.010358 -0.098051 0.171938
vn 0.542914 -0.828017 0.140114
v 0.061748 -0.092046 0.138386
vn 0.192987 -0.968092 0.159855
v 0.024120 -0.106839 0.135835
vn 0.060404 0.540482 0.839184
v 0.006651 0.066291 0.209673
vn -0.293536 0.669188 0.682660
v -0.032896 0.075887 0.195145
vn -0.377364 0.842544 0.384339
v -0.043480 0.090471 0.168739
vn 0.411627 0.851696 0.324309
v 0.052038 0.091326 0.158593
vn -0.025020 0.978251 0.205909
v -0.002179 0.110334 0.141455
vn 0.053728 0.830663 0.554178
v 0.005919 0.092277 0.182701
vn 0.276081 -0.941023 -0.195592
v 0.031383 -0.103933 0.096431
vn -0.056760 -0.879524 -0.472458
v -0.005995 -0.099509 0.067268
vn 0.287260 0.955750 -0.063428
v 0.034563 0.105253 0.118607
vn -0.171478 0.958896 -0.226082
v -0.012776 0.109383 0.097091
vn 0.155312 0.868436 -0.470846
v 0.012845 0.097429 0.067397
vn 0.613713 0.789045 -0.027641
v 0.063275 0.091265 0.112915
vn 0.795464 0.541578 -0.271901
v 0.087871 0.060780 0.088111
vn 0.475061 0.818300 -0.323576
v 0.054285 0.089921 0.083840
vn -0.110200 -0.346708 -0.931477
v -0.016220 -0.040363 0.017590
vn 0.188324 -0.605028 -0.773612
v 0.019524 -0.068772 0.033978
vn 0.298940 -0.254088 -0.919823
v 0.040244 -0.030306 0.020183
vn 0.431130 -0.738402 -0.518545
v 0.050090 -0.078933 0.060242
vn 0.801272 -0.446084 -0.398713
v 0.088241 -0.054857 0.078001
vn 0.559118 -0.444240 -0.700027
v 0.062778 -0.048010 0.041584
vn 0.066705 0.617568 -0.783684
v 0.005951 0.069335 0.032167
vn -0.026021 0.009362 -0.999618
v -0.006612 0.001512 0.008666
vn 0.681809 -0.027813 -0.731001
v 0.077016 0.000712 0.037217
vn 0.239314 0.223547 -0.944857
v 0.027411 0.019489 0.012288
vn 0.881355 0.067777 0.467569
v 0.100015 0.003998 0.169680
vn 0.353925 -0.803133 0.479286
v 0.041153 -0.089727 0.171649
vn 0.392016 -0.552250 0.735760
v 0.040218 -0.063393 0.202184
vn 0.817201 -0.306700 0.487973
v 0.089221 -0.039670 0.174253
vn 0.652285 -0.570038 0.499581
v 0.075422 -0.063624 0.173547
vn 0.422909 0.610683 0.669488
v 0.045764 0.067383 0.196004
vn 0.092086 0.114632 0.989131
v 0.009579 0.013713 0.230801
vn 0.408420 0.251844 0.877364
v 0.044841 0.027422 0.217783
vn 0.697976 0.343639 0.628285
v 0.073457 0.036715 0.195766
vn 0.502632 -0.209977 0.838612
v 0.055853 -0.018801 0.214669
vn 0.902281 0.094367 -0.420695
v 0.103150 0.010347 0.076562
vn 0.983691 -0.074820 0.163566
v 0.111096 -0.004040 0.137614
vn 0.885525 0.433071 0.168212
v 0.099165 0.051441 0.138313
vn 0.968172 -0.207798 -0.139513
v 0.107294 -0.025961 0.107576
vn -0.493789 -0.686304 -0.534003
v -0.052527 -0.077385 0.059519
vn -0.483385 -0.375997 -0.790548
v -0.054003 -0.044003 0.032688
vn -0.775233 0.074400 -0.627278
v -0.083048 0.006307 0.044326
vn -0.315731 0.760552 -0.567340
v -0.036339 0.083840 0.055527
vn -0.610529 0.440623 -0.658107
v -0.071087 0.057564 0.055903
vn -0.250711 0.410176 -0.876869
v -0.035802 0.046033 0.024196
vn -0.690359 0.640355 -0.336675
v -0.081805 0.067666 0.081868
vn -0.416571 0.048276 -0.907820
v -0.040969 0.006620 0.014596
vn -0.742582 0.661302 0.106079
v -0.081755 0.076082 0.133623
vn -0.797663 -0.569068 -0.199739
v -0.089762 -0.062086 0.094995
vn -0.174039 -0.645267 0.743869
v -0.022418 -0.073594 0.200544
vn -0.620760 -0.534373 0.573675
v -0.069904 -0.065220 0.180281
vn -0.360491 0.343885 0.867058
v -0.039805 0.039504 0.216475
vn -0.707782 0.295740 0.641547
v -0.077926 0.033287 0.192133
vn -0.630172 0.575441 0.521297
v -0.073190 0.066987 0.171957
vn -0.222656 -0.180639 0.958015
v -0.030435 -0.020934 0.226545
vn -0.947630 0.265469 -0.177547
v -0.105499 0.026841 0.095559
vn -0.866662 -0.055845 0.495761
v -0.096307 0.001314 0.176533
vn -0.953760 -0.176820 -0.243057
v -0.107622 -0.018422 0.092245
vn -0.990586 -0.026449 0.134316
v -0.109850 -0.008437 0.137235
vn -0.906576 0.322334 0.272433
v -0.101609 0.036860 0.149152
vn -0.901905 -0.380709 0.204031
v -0.101695 -0.040041 0.141030
vn -0.951937 -0.070964 0.297961
v -0.061071 -0.133766 0.250752
vn -0.604630 0.387747 0.695755
v -0.034489 -0.029080 0.263043
vn 0.041749 0.670256 0.740955
v -0.002820 -0.015237 0.263511
vn -0.509891 -0.205930 0.835227
v -0.040600 -0.136336 0.279192
vn -0.002843 0.250312 0.968161
v -0.005517 -0.034935 0.273513
vn 0.196072 -0.200284 0.959918
v -0.000525 -0.140691 0.281606
vn 0.582975 0.801578 0.132712
v 0.018182 -0.003021 0.236120
vn 0.669684 -0.440969 0.597553
v 0.012685 -0.151475 0.271021
vn 0.601507 0.273388 0.750632
v 0.021528 -0.033346 0.264756
vn -0.135744 -0.857583 0.496110
v -0.027030 -0.169114 0.263668
vn 0.941889 0.124755 0.311899
v 0.037389 -0.047557 0.240883
vn 0.934549 -0.343106 0.094320
v 0.026895 -0.144773 0.244754
vn 0.977010 0.118395 -0.177297
v 0.038318 -0.042231 0.214311
vn 0.820886 -0.359874 -0.443437
v 0.022940 -0.145991 0.218385
vn 0.616051 0.291448 -0.731805
v 0.023954 -0.029960 0.191499
vn 0.332115 -0.476485 -0.814040
v 0.000889 -0.148991 0.198520
vn 0.486410 -0.865138 -0.122234
v 0.008101 -0.168423 0.229277
vn -0.204265 -0.900697 -0.383433
v -0.031985 -0.169414 0.219225
vn -0.045733 0.171480 -0.984125
v -0.008098 -0.036256 0.181883
vn -0.460704 -0.355190 -0.813383
v -0.032045 -0.145859 0.194851
vn -0.800814 -0.598879 -0.006393
v -0.052910 -0.159462 0.238517
vn -0.674705 0.274837 -0.685009
v -0.038759 -0.032477 0.196168
vn -0.924265 -0.118220 -0.362985
v -0.059602 -0.128997 0.220003
vn -0.224981 0.819414 -0.527205
v -0.013685 -0.005281 0.202389
vn -0.910704 0.411403 -0.036961
v -0.050779 -0.030825 0.228921
vn -0.414203 0.875417 0.249159
v -0.028855 -0.003709 0.239341
vn -0.107252 0.940734 -0.321739
v -0.020229 0.174979 0.224064
vn -0.679857 0.733317 -0.006367
v -0.049588 0.162129 0.236917
vn -0.964378 0.183589 0.190447
v -0.062511 0.138749 0.248215
vn -0.856031 -0.423128 0.296939
v -0.048288 0.027113 0.240161
vn -0.868062 -0.419884 -0.264887
v -0.046293 0.022458 0.210860
vn -0.433751 -0.402418 -0.806176
v -0.028300 0.022269 0.189701
vn -0.777723 0.324549 -0.538344
v -0.055729 0.141598 0.212391
vn 0.291632 -0.578697 -0.761617
v 0.005433 0.019459 0.190578
vn 0.045971 -0.047875 -0.997795
v -0.011475 0.040431 0.182303
vn -0.266470 0.349512 -0.898240
v -0.027267 0.144298 0.193971
vn 0.567387 0.002498 -0.823447
v 0.018413 0.048345 0.190224
vn 0.836484 0.480923 -0.262692
v 0.023617 0.156459 0.224950
vn 0.333961 0.407864 -0.849775
v 0.003279 0.145495 0.198655
vn 0.582205 -0.800259 -0.143608
v 0.018583 0.005992 0.218509
vn 0.873173 -0.228986 -0.430273
v 0.037482 0.038487 0.211739
vn 0.921094 -0.250514 0.298041
v 0.038157 0.036558 0.242837
vn 0.760688 0.270370 0.590130
v 0.021706 0.141259 0.263335
vn 0.385524 -0.253715 0.887130
v 0.009286 0.033437 0.272257
vn 0.332151 -0.763169 0.554300
v 0.009479 0.010356 0.256748
vn 0.316453 0.846627 0.427879
v 0.001912 0.168959 0.256910
vn -0.022660 0.245457 0.969143
v -0.015299 0.142094 0.285966
vn -0.401412 -0.475367 0.782876
v -0.031060 0.025009 0.264858
vn -0.460337 0.698902 0.547381
v -0.038415 0.158610 0.266036
vn -0.706957 0.034816 0.706399
v -0.050375 0.127126 0.268819
vn -0.260189 -0.965395 -0.017728
v -0.015808 -0.001815 0.232211
# 131 vertices, 0 vertices normals

f 67//67 73//73 23//23
f 79//79 72//72 73//73
f 79//79 76//76 72//72
f 22//22 71//71 21//21
f 71//71 22//22 73//73
f 72//72 71//71 73//73
f 73//73 22//22 23//23
f 67//67 23//23 7//7
f 23//23 25//25 7//7
f 22//22 21//21 26//26
f 30//30 25//25 29//29
f 26//26 24//24 25//25
f 29//29 24//24 32//32
f 24//24 29//29 25//25
f 22//22 26//26 23//23
f 26//26 25//25 23//23
f 7//7 25//25 30//30
f 30//30 29//29 31//31
f 29//29 34//34 31//31
f 32//32 34//34 29//29
f 62//62 31//31 41//41
f 30//30 31//31 62//62
f 7//7 30//30 65//65
f 30//30 62//62 65//65
f 62//62 63//63 65//65
f 41//41 64//64 62//62
f 64//64 66//66 63//63
f 63//63 66//66 61//61
f 65//65 61//61 75//75
f 63//63 61//61 65//65
f 62//62 64//64 63//63
f 7//7 65//65 67//67
f 73//73 67//67 79//79
f 61//61 77//77 75//75
f 75//75 77//77 78//78
f 79//79 78//78 76//76
f 65//65 75//75 67//67
f 75//75 78//78 79//79
f 79//79 67//67 75//75
f 24//24 10//10 32//32
f 26//26 21//21 50//50
f 26//26 50//50 24//24
f 50//50 21//21 52//52
f 50//50 52//52 53//53
f 10//10 53//53 57//57
f 57//57 53//53 45//45
f 53//53 4//4 45//45
f 50//50 53//53 10//10
f 50//50 10//10 24//24
f 21//21 71//71 51//51
f 71//71 72//72 15//15
f 72//72 76//76 15//15
f 51//51 74//74 3//3
f 74//74 69//69 3//3
f 15//15 74//74 71//71
f 15//15 14//14 74//74
f 74//74 51//51 71//71
f 76//76 80//80 70//70
f 70//70 80//80 1//1
f 78//78 80//80 76//76
f 80//80 68//68 1//1
f 13//13 1//1 68//68
f 78//78 77//77 80//80
f 68//68 80//80 77//77
f 5//5 61//61 60//60
f 64//64 41//41 44//44
f 64//64 44//44 42//42
f 66//66 64//64 42//42
f 60//60 66//66 35//35
f 66//66 42//42 35//35
f 8//8 35//35 36//36
f 66//66 60//60 61//61
f 41//41 31//31 2//2
f 41//41 2//2 44//44
f 31//31 34//34 2//2
f 34//34 33//33 2//2
f 32//32 33//33 34//34
f 2//2 33//33 55//55
f 2//2 55//55 43//43
f 19//19 49//49 46//46
f 45//45 4//4 48//48
f 48//48 4//4 54//54
f 46//46 47//47 17//17
f 17//17 47//47 3//3
f 48//48 54//54 49//49
f 54//54 47//47 49//49
f 49//49 47//47 46//46
f 19//19 46//46 20//20
f 46//46 18//18 20//20
f 20//20 6//6 16//16
f 46//46 17//17 18//18
f 17//17 3//3 69//69
f 18//18 69//69 6//6
f 17//17 69//69 18//18
f 16//16 1//1 13//13
f 1//1 16//16 6//6
f 18//18 6//6 20//20
f 19//19 20//20 27//27
f 19//19 27//27 9//9
f 20//20 16//16 27//27
f 27//27 28//28 38//38
f 16//16 13//13 28//28
f 38//38 28//28 36//36
f 8//8 36//36 28//28
f 16//16 28//28 27//27
f 27//27 38//38 9//9
f 9//9 38//38 39//39
f 36//36 37//37 40//40
f 40//40 37//37 43//43
f 40//40 43//43 39//39
f 36//36 40//40 38//38
f 40//40 39//39 38//38
f 9//9 39//39 11//11
f 49//49 11//11 48//48
f 19//19 11//11 49//49
f 11//11 19//19 9//9
f 39//39 55//55 58//58
f 39//39 43//43 55//55
f 58//58 55//55 12//12
f 58//58 12//12 56//56
f 11//11 56//56 48//48
f 56//56 45//45 48//48
f 39//39 58//58 11//11
f 56//56 11//11 58//58
f 47//47 54//54 3//3
f 54//54 4//4 52//52
f 52//52 4//4 53//53
f 51//51 52//52 21//21
f 54//54 51//51 3//3
f 52//52 51//51 54//54
f 1//1 6//6 70//70
f 6//6 69//69 70//70
f 69//69 14//14 70//70
f 69//69 74//74 14//14
f 70//70 14//14 15//15
f 70//70 15//15 76//76
f 8//8 28//28 59//59
f 8//8 59//59 60//60
f 8//8 60//60 35//35
f 28//28 13//13 59//59
f 59//59 68//68 5//5
f 13//13 68//68 59//59
f 5//5 68//68 77//77
f 5//5 77//77 61//61
f 5//5 60//60 59//59
f 36//36 35//35 37//37
f 37//37 42//42 44//44
f 37//37 35//35 42//42
f 43//43 44//44 2//2
f 37//37 44//44 43//43
f 56//56 57//57 45//45
f 12//12 55//55 33//33
f 57//57 33//33 32//32
f 32//32 10//10 57//57
f 56//56 12//12 57//57
f 33//33 57//57 12//12
f 105//105 81//81 82//82
f 105//105 82//82 106//106
f 104//104 106//106 87//87
f 101//101 84//84 81//81
f 81//81 84//84 82//82
f 101//101 90//90 84//84
f 82//82 83//83 106//106
f 82//82 84//84 85//85
f 82//82 85//85 83//83
f 106//106 83//83 87//87
f 84//84 90//90 86//86
f 84//84 86//86 85//85
f 90//90 88//88 86//86
f 85//85 89//89 83//83
f 85//85 86//86 89//89
f 83//83 89//89 87//87
f 86//86 88//88 89//89
f 88//88 90//90 97//97
f 89//89 88//88 91//91
f 89//89 91//91 87//87
f 88//88 92//92 91//91
f 90//90 98//98 97//97
f 91//91 93//93 87//87
f 88//88 97//97 92//92
f 91//91 92//92 93//93
f 92//92 94//94 93//93
f 93//93 95//95 87//87
f 92//92 97//97 94//94
f 87//87 95//95 104//104
f 93//93 94//94 95//95
f 94//94 97//97 96//96
f 94//94 96//96 95//95
f 97//97 98//98 96//96
f 95//95 96//96 99//99
f 96//96 100//100 99//99
f 96//96 98//98 100//100
f 95//95 99//99 104//104
f 99//99 100//100 102//102
f 99//99 102//102 104//104
f 100//100 103//103 102//102
f 98//98 101//101 100//100
f 100//100 101//101 103//103
f 104//104 102//102 105//105
f 102//102 103//103 105//105
f 98//98 90//90 101//101
f 101//101 81//81 103//103
f 104//104 105//105 106//106
f 103//103 81//81 105//105
f 110//110 109//109 111//111
f 109//109 113//113 111//111
f 108//108 113//113 109//109
f 111//111 112//112 131//131
f 111//111 113//113 112//112
f 108//108 107//107 113//113
f 113//113 116//116 112//112
f 112//112 116//116 115//115
f 113//113 107//107 116//116
f 112//112 115//115 114//114
f 112//112 114//114 131//131
f 131//131 114//114 120//120
f 116//116 107//107 119//119
f 116//116 119//119 115//115
f 115//115 119//119 117//117
f 115//115 117//117 114//114
f 107//107 118//118 119//119
f 114//114 117//117 121//121
f 119//119 118//118 117//117
f 117//117 118//118 121//121
f 114//114 121//121 120//120
f 107//107 126//126 118//118
f 121//121 118//118 122//122
f 121//121 122//122 120//120
f 118//118 126//126 123//123
f 118//118 123//123 122//122
f 120//120 122//122 125//125
f 122//122 123//123 124//124
f 126//126 127//127 123//123
f 122//122 124//124 125//125
f 123//123 127//127 124//124
f 120//120 125//125 131//131
f 126//126 107//107 129//129
f 126//126 129//129 127//127
f 125//125 124//124 128//128
f 124//124 127//127 128//128
f 125//125 128//128 131//131
f 127//127 129//129 130//130
f 127//127 130//130 128//128
f 128//128 110//110 131//131
f 129//129 109//109 130//130
f 128//128 130//130 110//110
f 129//129 108//108 109//109
f 130//130 109//109 110//110
f 129//129 107//107 108//108
f 131//131 110//110 111//111
# 250 faces, 0 coords texture

# End of File
